<svg viewBox="0 0 600 600" version="1.1" xmlns="http://www.w3.org/2000/svg" desc="Created with imagetracer.js version 1.2.6" ><path desc="l 0 p 0" fill="rgb(5,2,2)" stroke="rgb(5,2,2)" stroke-width="1" opacity="0.17647058823529413" d="M 120 200 L 139 200 L 139 229 L 110.5 229 L 110 221 L 120 221 L 120 200 Z M 136 202 L 135 203 L 122 203 L 121 207 L 124 207 L 124 217 Q 121 218 122 211 L 121 211 L 122 222 L 115 223 L 112 226 L 115 227 L 136 227 L 137 225 L 137 204 L 136 202 Z " /><path desc="l 0 p 1" fill="rgb(5,2,2)" stroke="rgb(5,2,2)" stroke-width="1" opacity="0.17647058823529413" d="M 251 200 L 270 200 L 270 229 L 240.5 229 L 240 221 L 249.5 221 L 251 219.5 L 251 200 Z M 256 202 L 253 203 L 254 210 L 252 222 L 250 222 L 249 224 L 247 224 L 245 223 L 241 225 L 243 227 L 256 225 L 256 227 L 262 226 L 262 228 L 268 226 L 266 225 L 266 210 L 265 215 L 264 215 L 265 208 L 268 207 L 269 207 L 269 203 L 256 202 Z " /><path desc="l 1 p 0" fill="rgb(234,62,17)" stroke="rgb(234,62,17)" stroke-width="1" opacity="0.9921568627450981" d="M 211.5 60 L 238.5 60 L 240 61.5 L 240 71 L 246.5 71 L 250 73.5 L 249 76.5 L 251.5 81 L 254.5 82 L 284.5 81 L 288 83.5 Q 286.5 90.5 289.5 90 L 299 91 L 299 136.5 L 296.5 137 L 288 139.5 L 287 150 L 273.5 149 L 240.5 150 L 236.5 149 L 233.5 150 L 230 149 L 230 140 L 222.5 140 L 220.5 138 L 150 138 L 150 130 L 141.5 130 L 141 128.5 L 140 104.5 L 142.5 101 L 150 101 L 150 91.5 L 151.5 90 L 161 90 L 161 82.5 L 163.5 80 L 196.5 81 L 200 80 L 201 75.5 L 201 73.5 L 202.5 71 L 210 71 L 210 61.5 L 211.5 60 Z M 215 77 L 210 79 L 202 90 L 201 88 L 200 110 L 196 115 L 197 120 L 202 123 L 210 122 L 213 115 L 211 116 L 210 111 L 215 112 L 213 112 L 214 114 L 220 112 L 224 105 L 230 100 L 233 95 Q 234 85 231 80 L 228 77 L 215 77 Z M 169 90 L 165 97 L 166 99 L 166 100 L 165 98 L 163 99 L 159 104 L 153 109 L 150 110 L 150 120 L 161 120 L 165 123 L 170 122 L 173 115 L 183 109 L 183 95 L 180 92 L 180 90 L 169 90 Z M 162 127 L 162 130 L 220 130 L 219 128 L 216 129 L 207 128 L 173 129 L 162 127 Z " /><path desc="l 1 p 4" fill="rgb(234,62,17)" stroke="rgb(234,62,17)" stroke-width="1" opacity="0.9921568627450981" d="M 293.5 232 L 299 233 L 298 238.5 L 301.5 242 L 302.5 241 L 308 242.5 L 307.5 270 L 306.5 245 L 306 272.5 L 307 272.5 L 307.5 271 L 309 274.5 L 306.5 278 L 302 277.5 L 302.5 276 L 297 278 L 297.5 280 L 300 279 L 298 288 L 271 287 L 270 283.5 Q 271.5 280.5 277.5 282 L 277.5 283 L 274 284.5 L 280 285 L 281.5 280 L 284 279.5 L 285 274.5 L 282 273.5 L 283.5 270 L 286.5 271 L 290.5 270 L 290.5 271 L 285 273.5 L 288.5 274 L 293 270.5 L 294.5 236 L 298.5 243 L 302.5 244 L 302.5 243 L 298 240.5 L 295.5 235 L 293 235.5 L 293 242.5 L 292 242.5 L 291 238.5 L 291 236.5 L 293.5 232 Z " /><path desc="l 1 p 5" fill="rgb(234,62,17)" stroke="rgb(234,62,17)" stroke-width="1" opacity="0.9921568627450981" d="M 170.5 250 L 209 250.5 L 170.5 251 L 170.5 250 Z " /><path desc="l 2 p 0" fill="rgb(0,0,0)" stroke="rgb(0,0,0)" stroke-width="1" opacity="0" d="M 0 0 L 600 0 L 600 600 L 0 600 L 0 0 Z M 213 59 L 210 60 L 209 63 L 209 69 L 201 69 Q 198 71 199 77 L 197 79 L 174 78 L 168 79 L 164 78 L 160 79 L 159 89 L 152 90 L 150 91 L 150 99 L 139 99 L 138 108 L 139 138 L 138 139 L 130 139 L 129 149 L 122 150 L 120 151 L 120 158 Q 119 160 113 159 L 111 159 L 109 161 L 109 168 L 106 169 L 100 169 L 100 178 Q 98 181 92 179 L 89 182 L 90 186 L 89 189 L 81 190 Q 77 189 79 197 L 70 199 L 69 219 L 62 219 L 60 221 L 60 249 L 51 249 L 49 251 L 48 280 L 49 380 L 56 381 L 59 380 L 60 382 L 60 431 L 69 431 L 70 433 L 70 450 L 79 450 L 79 460 L 89 462 L 90 470 L 99 470 L 100 472 L 100 480 L 120 480 L 120 491 L 138 491 L 139 493 L 139 500 L 159 500 L 160 502 L 161 510 L 190 510 L 191 521 L 229 521 L 230 530 L 350 530 L 350 523 L 352 521 L 390 521 L 390 510 L 420 510 L 420 500 L 440 500 L 440 493 L 442 491 L 460 491 L 461 490 L 461 480 L 470 480 L 470 472 L 472 470 L 480 470 L 481 461 L 490 461 L 491 460 L 491 450 L 500 450 L 500 442 L 502 440 L 510 440 L 511 433 L 512 431 L 521 431 L 521 420 L 530 420 L 530 401 L 540 401 L 540 371 L 550 371 L 551 370 L 551 320 L 546 319 L 544 319 L 540 318 L 541 302 L 543 300 L 551 300 L 551 241 L 542 240 L 540 239 L 540 229 L 522 228 L 520 228 L 512 229 L 510 228 L 510 210 L 500 209 L 501 201 Q 499 196 498 199 L 495 198 L 463 198 L 460 199 L 458 210 L 450 211 L 450 250 L 433 250 L 431 249 L 432 244 L 431 240 L 412 239 L 410 239 L 410 229 L 404 228 L 401 228 L 401 219 L 391 220 L 382 220 L 380 219 L 381 212 L 380 210 L 362 210 L 360 209 L 360 199 L 345 199 L 343 199 Q 339 197 341 191 L 339 190 L 333 189 L 330 189 L 330 180 L 323 180 Q 318 178 321 177 L 320 169 L 312 168 L 311 161 L 309 160 L 302 159 L 300 158 L 300 150 L 290 149 L 290 140 L 300 140 L 301 92 L 290 88 L 291 81 L 290 78 L 288 79 L 254 78 L 252 76 L 252 74 L 251 70 L 248 69 L 242 70 L 240 69 L 240 60 L 213 59 Z " /><path desc="l 4 p 0" fill="rgb(252,162,109)" stroke="rgb(252,162,109)" stroke-width="1" opacity="0.9764705882352941" d="M 474.5 198 L 484.5 199 L 486.5 199 L 495 198 L 494.5 200 L 472.5 200 L 472.5 199 L 474.5 198 Z " /><path desc="l 4 p 1" fill="rgb(252,162,109)" stroke="rgb(252,162,109)" stroke-width="1" opacity="0.9764705882352941" d="M 469.5 211 L 470 239.5 L 469 239.5 L 469.5 211 Z " /><path desc="l 4 p 2" fill="rgb(252,162,109)" stroke="rgb(252,162,109)" stroke-width="1" opacity="0.9764705882352941" d="M 161.5 220 L 199 221 L 200 228.5 L 199.5 230 L 210 230 L 210 250 L 170.5 250 L 170 248.5 L 169 241.5 L 170.5 240 L 180 240 L 180 230.5 L 181.5 229 Q 188.2 230.8 190 227.5 L 189.5 221 L 161 221 L 160.5 251 L 160 221.5 L 161.5 220 Z " /><path desc="l 4 p 3" fill="rgb(252,162,109)" stroke="rgb(252,162,109)" stroke-width="1" opacity="0.9764705882352941" d="M 518.5 228 L 520.5 229 L 522.5 228 L 528.5 229 L 530.5 228 L 533.5 229 L 535.5 228 L 540 229.5 L 510.5 230 L 510.5 229 L 518.5 228 Z " /><path desc="l 4 p 4" fill="rgb(252,162,109)" stroke="rgb(252,162,109)" stroke-width="1" opacity="0.9764705882352941" d="M 107.5 230 L 108 232 L 111.5 231 L 112.5 233 L 120 232 L 119 240 L 129 241 L 129 278.5 L 121.5 279 L 121.5 277 L 119 278.5 L 120 288 L 82 289 L 81 281 L 83 280.5 L 80 279.5 L 79.5 278 L 78.5 280 L 76.5 277 L 76 280 L 71.5 278 L 72 276.5 L 71 270.5 L 72 255.5 L 71 252.5 L 72.5 250 L 70 248.5 L 71.5 248 L 73 248.5 L 72 245.5 L 72.5 244 Q 69.5 244.7 71 241 L 80.5 240 L 83 239.5 L 82.5 238 L 81 238.5 L 81.5 231 L 106.5 231 L 107.5 230 Z " /><path desc="l 4 p 5" fill="rgb(252,162,109)" stroke="rgb(252,162,109)" stroke-width="1" opacity="0.9764705882352941" d="M 286.5 230 L 287 232 L 289 231.5 L 288.5 230 Q 291.5 229.1 290 233.5 L 290 235.5 L 290 269.5 L 280 270 L 280 278.5 L 278.5 280 L 270 280 L 270 287.5 L 268.5 289 L 263.5 288 L 261 287.5 L 261 283.5 L 262 279.5 L 260 279.5 L 260.5 278 L 259 279.5 L 257 278.5 L 256.5 277 L 256 280 L 251.5 278 L 252 276.5 L 251 270.5 L 252 240 L 261.5 241 L 263 238.5 L 261 238.5 Q 259.8 232.4 262.5 233 L 286.5 230 Z " /><path desc="l 4 p 6" fill="rgb(252,162,109)" stroke="rgb(252,162,109)" stroke-width="1" opacity="0.9764705882352941" d="M 310.5 240 L 311 279.5 L 309.5 281 L 300.5 281 L 300.5 280 L 310 279.5 L 310.5 240 Z " /><path desc="l 4 p 7" fill="rgb(252,162,109)" stroke="rgb(252,162,109)" stroke-width="1" opacity="0.9764705882352941" d="M 360.5 250 L 427 250.5 L 360.5 251 L 360.5 250 Z " /><path desc="l 4 p 8" fill="rgb(252,162,109)" stroke="rgb(252,162,109)" stroke-width="1" opacity="0.9764705882352941" d="M 460 280 L 468.5 280 L 470 281.5 L 470 310.5 L 466.5 311 L 466.5 310 L 469 309.5 L 469 281 L 461 281.5 L 461 310 L 463 310.5 L 461.5 311 L 460 309.5 L 460 280 Z " /><path desc="l 4 p 9" fill="rgb(252,162,109)" stroke="rgb(252,162,109)" stroke-width="1" opacity="0.9764705882352941" d="M 330.5 340 L 339.5 340 L 341 341.5 L 340.5 390 L 340 341 L 330.5 341 L 330.5 340 Z " /><path desc="l 4 p 10" fill="rgb(252,162,109)" stroke="rgb(252,162,109)" stroke-width="1" opacity="0.9764705882352941" d="M 370.5 440 L 371 460 L 373 460.5 L 371.5 461 L 370 459.5 L 370.5 440 Z " /><path desc="l 4 p 11" fill="rgb(252,162,109)" stroke="rgb(252,162,109)" stroke-width="1" opacity="0.9764705882352941" d="M 390.5 469 L 419 469.5 L 390.5 470 L 390.5 469 Z " /><path desc="l 4 p 12" fill="rgb(252,162,109)" stroke="rgb(252,162,109)" stroke-width="1" opacity="0.9764705882352941" d="M 169.5 498 L 190 499.5 L 170.5 500 L 169.5 498 Z " /><path desc="l 5 p 0" fill="rgb(254,253,212)" stroke="rgb(254,253,212)" stroke-width="1" opacity="0.996078431372549" d="M 150.5 141 L 218 141.5 L 150.5 142 L 150.5 141 Z " /><path desc="l 5 p 1" fill="rgb(254,253,212)" stroke="rgb(254,253,212)" stroke-width="1" opacity="0.996078431372549" d="M 154.5 145 L 155 151.5 Q 152.5 156.3 145 155 L 144 164 L 136 166 L 135 171.5 L 131.5 175 L 116.5 175 L 115 176.5 Q 116.5 183.5 112.5 185 L 107 184.5 L 114 180.5 Q 113 175 116.5 174 Q 128.6 176.1 133 170.5 L 136.5 164 L 143 160.5 L 145.5 154 L 153 150.5 L 154.5 145 Z " /><path desc="l 5 p 2" fill="rgb(254,253,212)" stroke="rgb(254,253,212)" stroke-width="1" opacity="0.996078431372549" d="M 213.5 145 Q 217.3 143.8 216 147.5 L 218 152 L 228 154.5 L 219.5 155 L 215 151.5 Q 216.3 145.4 213.5 146 L 213.5 145 Z " /><path desc="l 5 p 3" fill="rgb(254,253,212)" stroke="rgb(254,253,212)" stroke-width="1" opacity="0.996078431372549" d="M 225.5 150 L 247 150.5 L 225.5 151 L 225.5 150 Z " /><path desc="l 5 p 4" fill="rgb(254,253,212)" stroke="rgb(254,253,212)" stroke-width="1" opacity="0.996078431372549" d="M 275.5 155 Q 275 161.5 278.5 164 L 281 163.5 L 278 161.5 L 279.5 160 L 282 161.5 L 281.5 163 L 284.5 161 L 284 162.5 L 281.5 164 L 281.5 165 L 286 166.5 L 286 189.5 L 288.5 193 L 296 195.5 L 296 223.5 L 294.5 225 L 275.5 226 L 276.5 224 L 295 224 L 295 196 L 290.5 195 L 288.5 195 L 286 193.5 L 284 184.5 L 285 166 L 275 165 L 275.5 155 Z " /><path desc="l 5 p 5" fill="rgb(254,253,212)" stroke="rgb(254,253,212)" stroke-width="1" opacity="0.996078431372549" d="M 104 185 Q 107.7 183.7 106 189.5 L 103.5 195 L 95 196 Q 96 201.7 92.5 204 L 85 207 L 85 224 L 102.5 224 L 104 224.5 L 105 195 L 107.5 194 L 140.5 194 L 142.5 194 L 145 195.5 L 144.5 203 L 143 196 L 137.5 197 L 137.5 195 L 135.5 196 L 133.5 196 L 120 197 L 119.5 195 L 109.5 195 L 109.5 196 L 112 196.5 L 109.5 197 L 107.5 196 Q 103.9 198.9 105 206.5 L 106 217.5 L 105.5 219 Q 108.5 218.2 107 222 L 105 223.5 L 105.5 225 L 103.5 226 L 82.5 225 L 77 227 L 75.5 231 L 74 226.5 L 83 220.5 L 84 204.5 L 82.5 205 L 81 205.5 L 81 207.5 L 82 217.5 L 80 218.5 L 80 216.5 L 80 203.5 L 82 200 L 90 200.5 L 84 202 Q 82.7 205.3 87.5 204 L 92 202 L 95.5 194 Q 101.3 194.8 103 191.5 L 104 185 Z " /><path desc="l 5 p 6" fill="rgb(254,253,212)" stroke="rgb(254,253,212)" stroke-width="1" opacity="0.996078431372549" d="M 240.5 194 L 270.5 194 L 275 196.5 L 274.5 200 L 273 196 L 269 195 Q 270.3 198 266.5 197 L 252.5 195 L 252.5 197 L 240.5 195 L 236 198.5 L 235.5 201 L 235 196.5 L 240.5 194 Z " /><path desc="l 5 p 7" fill="rgb(254,253,212)" stroke="rgb(254,253,212)" stroke-width="1" opacity="0.996078431372549" d="M 144.5 204 L 145 205.5 L 144 208.5 L 145.5 217 L 147.5 215 L 155 215 L 155 206.5 L 156.5 205 L 162 205.5 L 156 208.5 Q 157.5 214.5 154.5 216 Q 147.5 214.5 146 218.5 L 147 224 L 144.5 225 L 143 206.5 L 144.5 204 Z " /><path desc="l 5 p 8" fill="rgb(254,253,212)" stroke="rgb(254,253,212)" stroke-width="1" opacity="0.996078431372549" d="M 199.5 205 L 205 207.5 L 205 215 L 213.5 215 L 215 220.5 L 214 220.5 L 212.5 217 L 204 214.5 Q 205.5 207.5 201.5 206 L 199.5 205 Z " /><path desc="l 5 p 9" fill="rgb(254,253,212)" stroke="rgb(254,253,212)" stroke-width="1" opacity="0.996078431372549" d="M 71.5 224 L 73 225.5 L 73 238 L 78 238 L 78 235.5 L 77 232.5 Q 76 228.8 79 230 L 78 234.5 L 79 237.5 L 78 240 L 71 240 L 71 235.5 L 72 233.5 L 71.5 224 Z " /><path desc="l 5 p 10" fill="rgb(254,253,212)" stroke="rgb(254,253,212)" stroke-width="1" opacity="0.996078431372549" d="M 215.5 224 L 220 224.5 L 217 225.5 L 220.5 226 L 225 225 L 226 229.5 L 226 251.5 L 225 255 L 215.5 256 L 216.5 253 L 210 251.5 L 211.5 252 L 222.5 254 L 225 245.5 L 224 235.5 L 225 230.5 L 222.5 226 L 211.5 228 L 211.5 227 L 217 226.5 L 215.5 224 Z " /><path desc="l 5 p 11" fill="rgb(254,253,212)" stroke="rgb(254,253,212)" stroke-width="1" opacity="0.996078431372549" d="M 83.5 226 L 87.5 228 L 104.5 228 L 106 227.5 L 105.5 229 L 86.5 229 L 83.5 228 L 80 228.5 L 82.5 227 L 83.5 226 Z " /><path desc="l 5 p 12" fill="rgb(254,253,212)" stroke="rgb(254,253,212)" stroke-width="1" opacity="0.996078431372549" d="M 287.5 226 L 291 226.5 L 289.5 229 L 286.5 228 L 271.5 229 L 271.5 228 L 285.5 228 L 287.5 226 Z " /><path desc="l 5 p 13" fill="rgb(254,253,212)" stroke="rgb(254,253,212)" stroke-width="1" opacity="0.996078431372549" d="M 496 230 L 499 230.5 L 499 255 L 497 254.5 L 497 240.5 L 498 232 Q 495 233 496 230 Z " /><path desc="l 5 p 14" fill="rgb(254,253,212)" stroke="rgb(254,253,212)" stroke-width="1" opacity="0.996078431372549" d="M 121.5 233 L 124.5 234 L 126.5 233 L 135 234.5 L 125.5 236 L 123.5 236 L 121 237.5 L 122.5 239 L 122.5 240 L 120 238.5 L 121.5 233 Z " /><path desc="l 5 p 15" fill="rgb(254,253,212)" stroke="rgb(254,253,212)" stroke-width="1" opacity="0.996078431372549" d="M 257.5 233 L 258 236.5 L 255.5 237 L 250.5 236 L 247 238.5 L 246 279.5 L 249.5 284 L 254.5 285 L 254.5 284 L 250 283 L 250.5 281 L 252.5 282 L 255 282.5 L 256.5 284 Q 260.8 285.8 258 287.5 L 257.5 289 L 256 286.5 L 256.5 285 L 255 287.5 L 258.5 293 L 276 295 L 276 326.5 L 278 332 L 286 335.5 L 286 348.5 L 289.5 353 L 295 354 Q 296.3 357.3 291.5 356 L 287 359.5 L 286 378.5 L 289.5 383 L 296 385.5 L 299.5 393 L 306 395.5 L 306 414.5 L 304.5 416 L 294.5 416 L 294 412.5 L 290.5 407 L 271.5 406 L 267 409.5 L 266 418.5 L 269.5 423 L 276 425.5 L 279.5 433 L 285 434 L 289.5 443 L 296 445.5 L 296 454.5 L 294.5 456 L 264.5 456 L 264 453.5 L 262 448 L 257.5 446 L 245.5 446 L 244 444.5 L 240.5 437 L 222.5 436 L 217 439.5 L 216 446.5 L 218 452 L 225 454 L 224.5 456 L 204 456 L 202 448 L 197.5 446 L 185.5 446 L 184 444.5 L 180.5 437 L 162.5 436 L 157 439.5 L 156 446.5 L 158 452 L 165 454 L 164.5 456 L 144 456 L 142 448 L 134 444.5 Q 134.8 438.7 131.5 437 L 115.5 436 L 114 434.5 L 112 428 L 104 424.5 L 100.5 417 L 94 414.5 L 90.5 407 L 84 404.5 Q 85.7 392.9 82 388 L 75 386 L 74 371.5 L 70.5 367 L 65 365.5 L 70.5 365 L 75 368.5 L 76 385 Q 81.7 384 84 387.5 L 85 403 L 94 406 L 95 415 Q 102.5 413.7 105 418.5 L 107.5 425 L 114 426 L 115 434 L 132.5 435 L 135 437.5 L 136 445 Q 141.7 444 144 447.5 L 145 455 L 158 454.5 L 155 450.5 L 155 438.5 L 158.5 435 L 181.5 435 Q 186.8 437 185 445 L 200.5 445 L 204 447.5 L 205 455 L 218 454.5 L 215 450.5 L 215 438.5 L 218.5 435 L 241.5 435 Q 246.8 437 245 445 L 260.5 445 L 264 447.5 L 265 455 L 293.5 455 L 295 453.5 L 295 446 L 291.5 446 L 287 445 L 283.5 436 L 276 432.5 L 275 425 Q 267.9 426.7 266 422.5 L 265 408.5 L 268.5 405 L 291.5 405 Q 296.8 407 295 415 L 305 414 L 305 396.5 L 302.5 396 L 295 391.5 L 295 385 L 289.5 385 L 285 381.5 L 285 358.5 L 287 353.5 L 285 351.5 L 285 335 Q 278.5 336.3 276 332.5 L 275 305 Q 270.9 306.7 272 302.5 L 271 299.5 L 274 297.5 Q 268.7 293.3 257.5 295 L 254 291.5 L 251.5 287 L 244 283.5 L 245 270.5 L 244 240 L 241 238.5 Q 240.1 235.1 245.5 237 L 250 235.5 L 245 234.5 L 257.5 233 Z " /><path desc="l 5 p 16" fill="rgb(254,253,212)" stroke="rgb(254,253,212)" stroke-width="1" opacity="0.996078431372549" d="M 130.5 236 L 135 237 L 136 242.5 L 136 280.5 L 132.5 285 L 125 287 L 123.5 294 L 76.5 295 L 73 287 L 65 285 L 64.5 320 L 64 255 L 66 255.5 L 66 279.5 L 69.5 284 L 74.5 285 L 74.5 284 L 70 281.5 L 71.5 282 L 73.5 281 L 77 282.5 L 79 286.5 L 77.5 289 L 76 286.5 L 76.5 285 L 75 287.5 L 78.5 293 L 119.5 294 L 123 291.5 L 125.5 285 L 133 283 L 135 278.5 L 135 243.5 L 131.5 237 L 130.5 236 Z " /><path desc="l 5 p 17" fill="rgb(254,253,212)" stroke="rgb(254,253,212)" stroke-width="1" opacity="0.996078431372549" d="M 248.5 240 L 249 276.5 L 248 276.5 L 248.5 240 Z " /><path desc="l 5 p 18" fill="rgb(254,253,212)" stroke="rgb(254,253,212)" stroke-width="1" opacity="0.996078431372549" d="M 534.5 245 L 535 250.5 L 534 253.5 L 535 256 Q 529.3 255 527 258.5 L 526 274 Q 522 275.4 524 268.5 L 525 263.5 L 524 256.5 L 533 250.5 L 534.5 245 Z " /><path desc="l 5 p 19" fill="rgb(254,253,212)" stroke="rgb(254,253,212)" stroke-width="1" opacity="0.996078431372549" d="M 131 248 Q 134.5 246.9 133 254.5 L 131.5 271 L 131 248 Z " /><path desc="l 5 p 20" fill="rgb(254,253,212)" stroke="rgb(254,253,212)" stroke-width="1" opacity="0.996078431372549" d="M 145.5 249 L 147 254 L 156 256.5 Q 155 263 159.5 264 L 165 264.5 L 156.5 265 L 155 263.5 L 155 256 L 145 255 L 145.5 249 Z " /><path desc="l 5 p 21" fill="rgb(254,253,212)" stroke="rgb(254,253,212)" stroke-width="1" opacity="0.996078431372549" d="M 62 251 L 69 251 L 69 253.5 L 69 255.5 L 68.5 277 L 68 254.5 L 66.5 253 L 64.5 253 Q 60.8 254 62 251 Z " /><path desc="l 5 p 22" fill="rgb(254,253,212)" stroke="rgb(254,253,212)" stroke-width="1" opacity="0.996078431372549" d="M 494.5 254 L 496 274.5 L 487 280.5 L 486 294.5 L 484.5 296 L 477 299.5 L 475.5 305 L 474 303.5 L 474 286.5 L 475 284 Q 481.4 285.3 483 280.5 L 485.5 274 L 493 270.5 L 494.5 254 Z M 485 284 L 479 287 L 475 286 L 476 299 L 478 296 L 479 294 L 485 294 L 485 284 Z " /><path desc="l 5 p 23" fill="rgb(254,253,212)" stroke="rgb(254,253,212)" stroke-width="1" opacity="0.996078431372549" d="M 60.5 255 L 63 256 L 63 260 L 61.5 260 L 61.5 261 L 63 263 Q 59.5 261.9 61 269.5 L 62 271.5 L 60.5 276 L 60.5 255 Z " /><path desc="l 5 p 24" fill="rgb(254,253,212)" stroke="rgb(254,253,212)" stroke-width="1" opacity="0.996078431372549" d="M 530.5 258 L 540 258.5 L 530.5 259 L 529 260.5 L 529 284.5 L 527.5 285 L 529 287.5 L 527.5 289 L 521 288.5 L 524.5 287 L 526 287.5 L 527 266.5 L 528 260.5 L 530.5 258 Z " /><path desc="l 5 p 25" fill="rgb(254,253,212)" stroke="rgb(254,253,212)" stroke-width="1" opacity="0.996078431372549" d="M 498.5 262 L 499 280 L 490 280 L 490 299.5 L 487 300 L 489 285.5 L 488 283.5 L 491.5 278 L 495.5 279 L 498 278 L 497 267.5 L 498 265.5 L 497 263.5 L 498.5 262 Z " /><path desc="l 5 p 26" fill="rgb(254,253,212)" stroke="rgb(254,253,212)" stroke-width="1" opacity="0.996078431372549" d="M 480.5 270 L 481 272 L 485 272.5 L 482 274 Q 482.7 280.5 478.5 283 L 472 282 Q 473 285 470 284 L 471.5 281 L 480 281 L 480.5 270 Z " /><path desc="l 5 p 27" fill="rgb(254,253,212)" stroke="rgb(254,253,212)" stroke-width="1" opacity="0.996078431372549" d="M 524.5 275 Q 527.8 276.8 526 283.5 L 525 286 Q 519.1 285.1 517 289.5 L 515.5 306 L 514 304.5 L 514 285.5 L 523 281.5 L 524.5 275 Z " /><path desc="l 5 p 28" fill="rgb(254,253,212)" stroke="rgb(254,253,212)" stroke-width="1" opacity="0.996078431372549" d="M 122.5 281 L 128.5 282 L 130 281.5 L 127.5 283 L 125.5 283 L 123.5 284 L 122.5 282 L 120.5 292 L 120 282 L 122.5 281 Z " /><path desc="l 5 p 30" fill="rgb(254,253,212)" stroke="rgb(254,253,212)" stroke-width="1" opacity="0.996078431372549" d="M 470.5 285 L 471 305 L 475.5 307 L 478 306.5 L 479.5 304 L 480 310 L 471 309 L 470 306.5 L 470.5 285 Z " /><path desc="l 5 p 31" fill="rgb(254,253,212)" stroke="rgb(254,253,212)" stroke-width="1" opacity="0.996078431372549" d="M 82.5 291 L 119 291.5 L 82.5 292 L 82.5 291 Z " /><path desc="l 5 p 32" fill="rgb(254,253,212)" stroke="rgb(254,253,212)" stroke-width="1" opacity="0.996078431372549" d="M 511.5 294 L 512 301.5 L 511 304.5 L 512 308 L 517 308 L 517 310 L 510 310 L 510 301.5 L 510 299.5 L 511.5 294 Z " /><path desc="l 5 p 33" fill="rgb(254,253,212)" stroke="rgb(254,253,212)" stroke-width="1" opacity="0.996078431372549" d="M 277 296 L 280 296.5 L 280 329.5 L 279 329.5 L 279 300.5 L 277 296 Z " /><path desc="l 5 p 34" fill="rgb(254,253,212)" stroke="rgb(254,253,212)" stroke-width="1" opacity="0.996078431372549" d="M 60.5 315 L 61 368 L 69 369.5 L 66.5 370 L 60 369.5 L 60.5 315 Z " /><path desc="l 5 p 35" fill="rgb(254,253,212)" stroke="rgb(254,253,212)" stroke-width="1" opacity="0.996078431372549" d="M 374 316 Q 377 314.8 376 318.5 L 379.5 323 L 386 325.5 L 389.5 333 L 404.5 334 L 406 335.5 Q 405.2 341.3 408.5 343 L 498.5 344 L 503 340.5 L 504.5 335 L 505 342.5 L 505.5 345 L 508 345.5 L 500 347.5 L 500.5 349 L 497.5 348 L 491.5 349 L 491.5 348 L 497.5 347 L 499 347.5 L 500.5 346 L 500.5 345 L 491.5 346 L 488 348.5 L 484.5 356 L 442.5 356 L 437 359.5 L 436 369.5 L 438.5 373 L 446 375.5 L 449.5 383 L 469.5 384 L 472 385.5 Q 470.3 388.8 468.5 385 L 446.5 384 L 442.5 394 L 416.5 395 L 415 393.5 L 415 385 Q 407.5 386.3 405 381.5 L 404 376 L 396 372.5 L 395 360.5 L 397.5 356 L 410.5 355 L 414 357.5 L 415 365 L 424 367.5 L 425 375 L 434.5 375 L 436 373.5 L 434 364.5 L 435 358.5 L 437.5 356 L 485 355 L 487 345 L 413.5 346 L 407.5 345 L 405 342.5 L 404 335 L 390 335.5 L 394 337.5 L 395 350.5 L 392.5 354 L 366.5 355 L 365 356.5 Q 363.2 363.3 366.5 365 Q 373.4 364.1 375 368.5 L 376 374 L 381.5 375 L 385 378.5 L 385 385 L 390.5 385 L 395 388.5 L 395 395 L 411.5 395 L 414 396 L 415 404 L 419.5 405 L 441.5 405 L 445 408.5 L 446 414.5 L 444 415 L 440.5 407 L 415.5 406 L 414 404.5 L 412 398 L 394 394.5 L 390.5 387 L 384 384.5 L 380.5 377 L 375.5 376 L 375.5 377 L 379 378.5 L 375 379 L 374.5 377 L 374 379 L 371 377.5 Q 374.8 376.7 374 371.5 L 370.5 367 L 364 364.5 L 364 355.5 L 365.5 354 L 386.5 354 L 392 352 L 394 342.5 L 392 338 L 384 336 L 382 328 L 374 324.5 L 374 316 Z M 403 356 L 398 358 L 396 364 L 397 371 L 406 375 L 407 381 L 415 384 L 417 391 L 422 394 L 438 394 L 442 392 L 444 387 L 443 380 L 439 376 L 426 376 L 423 371 Q 421 366 414 366 L 412 358 L 403 356 Z " /><path desc="l 5 p 36" fill="rgb(254,253,212)" stroke="rgb(254,253,212)" stroke-width="1" opacity="0.996078431372549" d="M 410.5 341 L 499 341.5 L 495.5 343 L 420.5 342 L 417.5 343 L 410.5 342 L 410.5 341 Z " /><path desc="l 5 p 37" fill="rgb(254,253,212)" stroke="rgb(254,253,212)" stroke-width="1" opacity="0.996078431372549" d="M 291.5 350 L 293.5 350 L 300 350 L 300 360 L 295 359.5 L 299 357.5 L 299 352 L 292.5 352 L 291.5 350 Z " /><path desc="l 5 p 38" fill="rgb(254,253,212)" stroke="rgb(254,253,212)" stroke-width="1" opacity="0.996078431372549" d="M 360 350 L 390 350.5 L 388.5 352 L 360.5 353 L 360 350 Z " /><path desc="l 5 p 40" fill="rgb(254,253,212)" stroke="rgb(254,253,212)" stroke-width="1" opacity="0.996078431372549" d="M 448 375 L 450 375 L 450.5 380 L 466.5 380 L 466.5 381 L 451.5 382 L 449 381 L 448 375 Z " /><path desc="l 5 p 41" fill="rgb(254,253,212)" stroke="rgb(254,253,212)" stroke-width="1" opacity="0.996078431372549" d="M 80.5 390 L 82 408 L 90 408.5 L 80 409 L 80.5 390 Z " /><path desc="l 5 p 42" fill="rgb(254,253,212)" stroke="rgb(254,253,212)" stroke-width="1" opacity="0.996078431372549" d="M 307 390 L 310 390.5 L 310 420 Q 306.3 421.5 307 418.5 Q 310.4 410.9 309 398.5 L 307 390 Z " /><path desc="l 5 p 43" fill="rgb(254,253,212)" stroke="rgb(254,253,212)" stroke-width="1" opacity="0.996078431372549" d="M 479.5 395 L 485 395.5 L 477 400.5 L 476 405 L 461.5 406 L 457 409.5 L 456 415 L 450 414.5 L 455 412.5 Q 454 406 458.5 405 L 475 404 Q 474 398.3 477.5 396 L 479.5 395 Z " /><path desc="l 5 p 44" fill="rgb(254,253,212)" stroke="rgb(254,253,212)" stroke-width="1" opacity="0.996078431372549" d="M 390.5 397 L 406.5 398 L 411 400.5 L 412 408 L 419.5 407 L 434.5 408 L 436.5 407 L 439 408.5 L 410 409 L 410 400 L 390.5 400 L 390.5 397 Z " /><path desc="l 5 p 45" fill="rgb(254,253,212)" stroke="rgb(254,253,212)" stroke-width="1" opacity="0.996078431372549" d="M 101.5 420 L 103 423.5 L 102 427.5 L 104 427.5 L 104.5 429 L 106.5 428 L 111 430.5 L 112 438 L 122.5 437 L 126.5 438 L 128.5 438 L 130 438.5 L 110 439 L 110 430 L 101 430 L 101.5 420 Z " /><path desc="l 5 p 46" fill="rgb(254,253,212)" stroke="rgb(254,253,212)" stroke-width="1" opacity="0.996078431372549" d="M 291.5 440 L 293.5 440 L 300 440 L 300 451.5 L 299 451.5 L 298 449.5 L 299 442 L 293.5 443 L 291.5 440 Z " /><path desc="l 5 p 47" fill="rgb(254,253,212)" stroke="rgb(254,253,212)" stroke-width="1" opacity="0.996078431372549" d="M 140.5 450 L 143 458 L 165.5 459 L 168 458 Q 169.5 452.2 166 450.5 L 169 450 L 169 460 L 141.5 460 L 140 458.5 L 140.5 450 Z " /><path desc="l 5 p 48" fill="rgb(254,253,212)" stroke="rgb(254,253,212)" stroke-width="1" opacity="0.996078431372549" d="M 200.5 450 L 203 458 L 225.5 459 L 228 458 Q 229.5 452.2 226 450.5 L 229 450 L 229 460 L 201.5 460 L 200 458.5 L 200.5 450 Z " /><path desc="l 5 p 49" fill="rgb(254,253,212)" stroke="rgb(254,253,212)" stroke-width="1" opacity="0.996078431372549" d="M 260.5 450 L 263 458 L 299.5 457 L 300 460 L 261.5 460 L 260 458.5 L 260.5 450 Z " /><path desc="l 6 p 0" fill="rgb(224,126,80)" stroke="rgb(224,126,80)" stroke-width="1" opacity="0.984313725490196" d="M 214.5 77 L 227.5 77 L 231 79.5 Q 234.4 84.6 233 94.5 L 230 100 L 224 104.5 L 219.5 112 L 213 114.5 L 209.5 122 L 201.5 123 L 197 119.5 L 196 114.5 L 200 109.5 L 200.5 88 L 201.5 90 L 210 79 L 214.5 77 Z " /><path desc="l 6 p 1" fill="rgb(224,126,80)" stroke="rgb(224,126,80)" stroke-width="1" opacity="0.984313725490196" d="M 165.5 79 L 195 79.5 L 165.5 80 L 165.5 79 Z " /><path desc="l 6 p 2" fill="rgb(224,126,80)" stroke="rgb(224,126,80)" stroke-width="1" opacity="0.984313725490196" d="M 169 90 L 179.5 90 L 180 91.5 L 183 94.5 L 183 108.5 L 173 114.5 L 169.5 122 L 164.5 123 L 160.5 120 L 150 120 L 150 109.5 L 152.5 109 L 159 103.5 L 162.5 99 L 165 97.5 L 169 90 Z " /><path desc="l 6 p 3" fill="rgb(224,126,80)" stroke="rgb(224,126,80)" stroke-width="1" opacity="0.984313725490196" d="M 139.5 105 L 140 128.5 L 141.5 130 L 150 130 L 150.5 139 L 220.5 139 L 220.5 140 L 150.5 140 L 140 139 L 139 135.5 L 139 133.5 L 139.5 105 Z " /><path desc="l 6 p 4" fill="rgb(224,126,80)" stroke="rgb(224,126,80)" stroke-width="1" opacity="0.984313725490196" d="M 161.5 127 L 172.5 129 L 206.5 128 L 215.5 129 L 218.5 128 L 219.5 130 L 161.5 130 L 161.5 127 Z " /><path desc="l 6 p 5" fill="rgb(224,126,80)" stroke="rgb(224,126,80)" stroke-width="1" opacity="0.984313725490196" d="M 281 150 L 300 150 L 300 160 L 281 160 L 281 150 Z " /><path desc="l 6 p 6" fill="rgb(224,126,80)" stroke="rgb(224,126,80)" stroke-width="1" opacity="0.984313725490196" d="M 112.5 160 L 120 161 L 120 169 L 110.5 169 L 109 166.5 L 109 162.5 L 109.5 161 L 112.5 160 Z " /><path desc="l 6 p 7" fill="rgb(224,126,80)" stroke="rgb(224,126,80)" stroke-width="1" opacity="0.984313725490196" d="M 102 169 L 106.5 171 L 109 170 L 109 180 L 101 180 L 100 171.5 L 101 171.5 L 101.5 173 L 102 169 Z " /><path desc="l 6 p 8" fill="rgb(224,126,80)" stroke="rgb(224,126,80)" stroke-width="1" opacity="0.984313725490196" d="M 464.5 199 L 494.5 200 L 496.5 199 L 498 202 L 500 202.5 L 500 204.5 L 498.5 210 L 470.5 210 L 469 211.5 L 469 239.5 L 460 240 L 461 203.5 L 460.5 202 L 463.5 200 L 464.5 199 Z " /><path desc="l 6 p 9" fill="rgb(224,126,80)" stroke="rgb(224,126,80)" stroke-width="1" opacity="0.984313725490196" d="M 199.5 210 L 200 220 L 210 220.5 L 200 221 L 199.5 228 L 199 221 L 190 220.5 L 199 220 L 199.5 210 Z " /><path desc="l 6 p 10" fill="rgb(224,126,80)" stroke="rgb(224,126,80)" stroke-width="1" opacity="0.984313725490196" d="M 340 210 L 360 210 L 360 220 L 380 220 L 380.5 230 L 399.5 230 L 401.5 230 L 408 229 Q 407 233.3 410 232.5 L 410 238.5 L 409.5 240 L 430.5 240 L 431 241.5 L 430 244.5 L 431 248.5 L 431 250.5 L 432 259.5 L 430 260 L 429.5 250 L 360 250 L 360 259 L 351.5 259 L 349 261.5 L 349 270 L 340 270 L 340 280 L 330 280 L 330 250.5 L 340 249.5 L 340 210 Z " /><path desc="l 6 p 11" fill="rgb(224,126,80)" stroke="rgb(224,126,80)" stroke-width="1" opacity="0.984313725490196" d="M 500 210 L 510 210 L 510 230 L 540 230 L 540 240 L 510 240 L 510 259 L 500 259 L 500 210 Z " /><path desc="l 6 p 12" fill="rgb(224,126,80)" stroke="rgb(224,126,80)" stroke-width="1" opacity="0.984313725490196" d="M 290 230 L 300 230 L 300 240 L 310 240 L 310 280 L 298.5 279 L 296.5 283 L 296 280.5 L 297 278 L 302.5 276 L 302.5 278 L 308 276.5 L 309 273.5 L 307.5 271 L 306.5 273 L 306 245.5 L 307 245.5 L 307.5 270 L 308 242.5 L 302.5 241 L 301.5 243 L 303 243.5 L 300.5 244 L 296 240.5 L 294.5 236 L 294 267.5 L 290.5 273 L 285 274 L 282.5 281 L 281 280.5 L 280 285 L 274 284.5 L 278 282.5 L 271.5 282 L 270 282.5 L 270.5 280 L 278.5 280 L 280 278.5 L 280 270 Q 283.8 268.5 283 271.5 L 282 273.5 Q 283.8 276.8 285.5 273 L 291 270.5 L 289 234.5 L 290 230 Z M 294 232 L 291 237 L 291 239 L 292 243 L 293 243 L 293 236 L 296 235 L 298 239 L 299 233 L 294 232 Z " /><path desc="l 6 p 14" fill="rgb(224,126,80)" stroke="rgb(224,126,80)" stroke-width="1" opacity="0.984313725490196" d="M 161.5 250 L 170 250.5 L 161 251 L 161.5 259 L 209.5 259 L 209.5 260 L 161.5 260 L 160 258.5 Q 158.3 251.8 161.5 250 Z " /><path desc="l 6 p 15" fill="rgb(224,126,80)" stroke="rgb(224,126,80)" stroke-width="1" opacity="0.984313725490196" d="M 450 250 L 460 250 L 460 259 L 435.5 260 L 435.5 259 L 450 259 L 450 250 Z " /><path desc="l 6 p 16" fill="rgb(224,126,80)" stroke="rgb(224,126,80)" stroke-width="1" opacity="0.984313725490196" d="M 299.5 281 L 300 290 L 270 289 L 270.5 284 L 271 287 L 298 288 L 299.5 281 Z " /><path desc="l 6 p 17" fill="rgb(224,126,80)" stroke="rgb(224,126,80)" stroke-width="1" opacity="0.984313725490196" d="M 461 281 L 469 281.5 L 469 310 L 461 309.5 L 461 281 Z " /><path desc="l 6 p 18" fill="rgb(224,126,80)" stroke="rgb(224,126,80)" stroke-width="1" opacity="0.984313725490196" d="M 488.5 310 L 510 310.5 L 490 311 L 490 319 L 509.5 319 L 509.5 320 L 470 319 L 470 311 L 487.5 311 L 488.5 310 Z " /><path desc="l 6 p 19" fill="rgb(224,126,80)" stroke="rgb(224,126,80)" stroke-width="1" opacity="0.984313725490196" d="M 521.5 310 L 530 310.5 L 521 311 L 521 320 L 539.5 320 L 541 319.5 L 540 370 L 530 370.5 L 530 399.5 L 530.5 401 L 528.5 400 L 526.5 400 L 520 401.5 L 520 420 L 510 420 L 510 430 L 500 430 L 500 440 L 490 440 L 490 450 L 480 450 L 480 460 L 470 460 L 470 470 L 460 470 L 460 480 L 440 480 L 440 489.5 L 440.5 491 L 438.5 490 L 436.5 491 L 431 490 L 431 481.5 L 429.5 480 L 420 480 L 420 470.5 L 418.5 469 L 390 469 L 390 460 L 371 460 L 371 440.5 L 369.5 440 L 360 439 L 360 420 L 350 419.5 L 350 390 L 341 389.5 L 341 360 L 349 360 L 349 378.5 L 350.5 380 L 360 380 L 360 390 L 370 390 L 370 400 L 360 400 L 360 410 L 370.5 409 L 370 410.5 L 370 420 L 380 420 L 380 410 L 390 410 L 390 420 L 380 420 L 380 430 L 400 430 L 400.5 420 L 469.5 420 L 470 410 L 480 410 L 480 420 L 490 420 L 490.5 390 L 491 410 L 498.5 410 L 500 408.5 L 500 390 L 510 389.5 L 510 350.5 L 520 349.5 L 520 311.5 L 521.5 310 Z M 403 430 L 400 431 L 401 440 L 469 440 L 470 439 L 470 432 L 469 431 L 467 431 L 405 430 L 403 430 Z " /><path desc="l 6 p 20" fill="rgb(224,126,80)" stroke="rgb(224,126,80)" stroke-width="1" opacity="0.984313725490196" d="M 51.5 320 L 60 320.5 L 60 378.5 L 58.5 380 L 51 380 L 50.5 378 L 49.5 380 L 49 323.5 L 51.5 320 Z " /><path desc="l 6 p 21" fill="rgb(224,126,80)" stroke="rgb(224,126,80)" stroke-width="1" opacity="0.984313725490196" d="M 330 341 L 340 341 L 340 360 L 330 360 L 330 341 Z " /><path desc="l 6 p 22" fill="rgb(224,126,80)" stroke="rgb(224,126,80)" stroke-width="1" opacity="0.984313725490196" d="M 490.5 360 L 491 371 L 470 370.5 L 490 370 L 490.5 360 Z " /><path desc="l 6 p 23" fill="rgb(224,126,80)" stroke="rgb(224,126,80)" stroke-width="1" opacity="0.984313725490196" d="M 60 380 L 70 380 L 70 410 L 60 410 L 60 380 Z " /><path desc="l 6 p 25" fill="rgb(224,126,80)" stroke="rgb(224,126,80)" stroke-width="1" opacity="0.984313725490196" d="M 139.5 485 L 140 490 L 169 491 L 170 497.5 L 169.5 500 L 160 500 L 159.5 491 L 139 491 L 139.5 485 Z " /><path desc="l 6 p 26" fill="rgb(224,126,80)" stroke="rgb(224,126,80)" stroke-width="1" opacity="0.984313725490196" d="M 420.5 490 L 430 490.5 L 420 491 L 420 500 L 410 500 L 410 491 L 419.5 491 L 420.5 490 Z " /><path desc="l 6 p 27" fill="rgb(224,126,80)" stroke="rgb(224,126,80)" stroke-width="1" opacity="0.984313725490196" d="M 190 500 L 210 500 L 210 510 L 190 510 L 190 500 Z " /><path desc="l 6 p 28" fill="rgb(224,126,80)" stroke="rgb(224,126,80)" stroke-width="1" opacity="0.984313725490196" d="M 230 510 L 259 510 L 259 520 L 230 520 L 230 510 Z " /><path desc="l 6 p 29" fill="rgb(224,126,80)" stroke="rgb(224,126,80)" stroke-width="1" opacity="0.984313725490196" d="M 330 510 L 350 510 L 350 519.5 L 350.5 521 L 348.5 520 L 346.5 521 L 330.5 520 L 260.5 521 L 260.5 520 L 329.5 520 L 330 510 Z " /><path desc="l 7 p 0" fill="rgb(253,188,143)" stroke="rgb(253,188,143)" stroke-width="1" opacity="0.996078431372549" d="M 290.5 160 L 293 161.5 L 294.5 163 L 300.5 173 L 304 173 Q 302.5 168.5 307 170 L 308.5 173 Q 311.5 172.2 310 176 Q 305.9 174.3 307 178.5 L 310.5 183 L 315 184.5 L 313.5 185 L 306 180.5 L 305 175 L 298.5 174 L 296 171.5 L 296 167.5 L 292 161 L 290.5 160 Z " /><path desc="l 7 p 1" fill="rgb(253,188,143)" stroke="rgb(253,188,143)" stroke-width="1" opacity="0.996078431372549" d="M 315.5 186 L 318.5 192 L 320 191.5 L 319 189.5 L 322 191.5 L 320 192.5 L 325 194.5 L 320.5 195 L 316 191.5 L 315 189.5 L 315 187.5 L 315.5 186 Z " /><path desc="l 7 p 2" fill="rgb(253,188,143)" stroke="rgb(253,188,143)" stroke-width="1" opacity="0.996078431372549" d="M 325.5 198 L 326 277.5 L 329.5 283 L 337.5 284 L 340.5 279 L 341 280.5 L 340.5 282 L 343 280.5 L 344 274 L 352 270.5 L 355.5 263 L 363 259.5 L 364 254 L 425.5 253 L 426 255.5 L 425.5 259 L 425 255 L 365.5 255 L 365 257.5 L 360.5 264 L 355 265 Q 355.3 271.5 350.5 274 L 345 275 L 344 278.5 L 344 280.5 L 341.5 284 L 330.5 285 L 326 281.5 L 325.5 198 Z " /><path desc="l 7 p 3" fill="rgb(253,188,143)" stroke="rgb(253,188,143)" stroke-width="1" opacity="0.996078431372549" d="M 474.5 214 L 495 214.5 L 475 215 L 474 217.5 L 474 240.5 L 470.5 244 L 465.5 245 L 466.5 243 L 472 240.5 L 473 215.5 L 474.5 214 Z " /><path desc="l 7 p 4" fill="rgb(253,188,143)" stroke="rgb(253,188,143)" stroke-width="1" opacity="0.996078431372549" d="M 188.5 221 Q 191.5 220.5 190 227.5 L 180 230.5 L 180 240 L 170.5 240 Q 167.5 241.5 169 247.5 L 170 250 Q 167 251.3 168 247.5 L 165 236.5 L 166 236.5 L 166.5 238 L 175 233.5 L 177 226.5 L 175 225.5 L 179.5 225 L 185.5 228 L 187.5 225 L 185 224.5 L 188.5 221 Z " /><path desc="l 7 p 5" fill="rgb(253,188,143)" stroke="rgb(253,188,143)" stroke-width="1" opacity="0.996078431372549" d="M 300 229 L 305 231.5 Q 303.2 237.6 310.5 235 L 314 237.5 L 316 244.5 L 316 276.5 L 314 280.5 L 315 281.5 L 311.5 285 L 305 286 Q 305.9 291.9 301.5 294 L 285.5 295 L 284.5 293 L 296.5 294 L 299 292.5 L 283.5 291 L 282.5 293 L 281 290 L 299.5 290 L 300 281 L 309.5 281 L 311 279.5 L 311 240 L 300 240 L 300 229 Z M 301 231 L 302 235 Q 300 240 306 238 L 308 238 L 311 239 L 313 243 L 313 277 L 310 282 L 312 282 L 314 278 L 315 255 L 314 241 Q 312 236 306 236 L 303 233 L 301 231 Z " /><path desc="l 7 p 6" fill="rgb(253,188,143)" stroke="rgb(253,188,143)" stroke-width="1" opacity="0.996078431372549" d="M 81.5 230 L 107 230.5 L 81 231 L 81.5 239 L 83 238.5 L 81.5 241 L 80 239.5 L 80 231.5 L 81.5 230 Z " /><path desc="l 7 p 7" fill="rgb(253,188,143)" stroke="rgb(253,188,143)" stroke-width="1" opacity="0.996078431372549" d="M 269.5 230 L 286 230.5 L 261 233 L 261.5 239 L 263 238.5 L 261.5 241 L 260 239.5 L 260 232 L 269.5 230 Z " /><path desc="l 7 p 9" fill="rgb(253,188,143)" stroke="rgb(253,188,143)" stroke-width="1" opacity="0.996078431372549" d="M 127.5 240 L 130 240.5 L 130 280 L 120.5 280 L 119 278.5 L 121.5 277 L 121.5 279 L 129 278.5 L 129 241 L 127.5 240 Z " /><path desc="l 7 p 10" fill="rgb(253,188,143)" stroke="rgb(253,188,143)" stroke-width="1" opacity="0.996078431372549" d="M 251.5 240 L 252 269.5 L 251 269.5 L 251.5 240 Z " /><path desc="l 7 p 11" fill="rgb(253,188,143)" stroke="rgb(253,188,143)" stroke-width="1" opacity="0.996078431372549" d="M 514 244 L 524 244.5 L 515 245 L 515 257.5 L 511.5 264 L 507.5 265 L 503 262.5 L 504.5 263 Q 510.3 263.8 512 260.5 Q 515.4 254.2 514 244 Z " /><path desc="l 7 p 12" fill="rgb(253,188,143)" stroke="rgb(253,188,143)" stroke-width="1" opacity="0.996078431372549" d="M 464.5 254 L 465 256.5 L 461.5 264 L 431.5 265 L 431.5 264 L 453.5 264 L 462 260.5 L 460.5 260 L 457.5 261 L 457.5 260 L 461.5 259 L 463 259.5 L 462 255 L 464.5 254 Z " /><path desc="l 7 p 13" fill="rgb(253,188,143)" stroke="rgb(253,188,143)" stroke-width="1" opacity="0.996078431372549" d="M 535.5 265 L 536 293.5 L 535 293.5 L 535.5 265 Z " /><path desc="l 7 p 14" fill="rgb(253,188,143)" stroke="rgb(253,188,143)" stroke-width="1" opacity="0.996078431372549" d="M 456 280 Q 461.6 277.8 460 283.5 L 459 283.5 Q 460 279.8 457 281 L 458 307.5 L 457.5 309 L 459.5 308 L 462 311.5 L 460 312.5 L 462.5 313 L 466 311.5 L 463 310.5 L 465.5 310 L 467.5 313 L 471 310.5 L 469.5 318 L 468.5 314 L 467 321 L 469.5 322 L 470 320 L 468 319.5 L 469.5 319 L 473 320.5 L 471 321.5 L 473.5 323 L 504.5 324 L 506 325.5 L 504.5 325 L 478.5 324 L 472.5 325 L 466 322.5 L 465 316 L 457 314 L 456 311.5 L 456 280 Z " /><path desc="l 7 p 15" fill="rgb(253,188,143)" stroke="rgb(253,188,143)" stroke-width="1" opacity="0.996078431372549" d="M 90.5 288 L 120 288.5 L 90.5 289 L 90.5 288 Z " /><path desc="l 7 p 16" fill="rgb(253,188,143)" stroke="rgb(253,188,143)" stroke-width="1" opacity="0.996078431372549" d="M 329.5 336 L 341.5 336 L 344 338.5 L 345 343.5 L 345 345.5 L 345 354.5 L 346.5 356 Q 353 355 354 359.5 L 355 375 L 363 377 L 365 385 L 374 388.5 L 375 399.5 L 374 399.5 L 372.5 398 L 371.5 401 L 370 397 L 374 394.5 L 370.5 387 L 364 386 L 360.5 377 L 354 376 L 353 362.5 L 350.5 358 L 344 354.5 L 344 345.5 L 342 343.5 L 343 340.5 L 341.5 341 L 339 339.5 L 340.5 340 L 342 339.5 Q 339.5 335.5 331.5 337 L 327 340.5 L 326 355.5 L 330.5 363 L 337 365.5 L 337 387.5 L 339.5 392 L 346 395.5 L 346 416.5 L 348 422 L 356 424 Q 353.9 436.4 359.5 442 L 367 445.5 L 368 457.5 L 367.5 459 L 369.5 458 L 372 461.5 L 370 462.5 L 372.5 463 L 375 462 L 375.5 464 L 385.5 464 L 386 465.5 L 389.5 472 L 414.5 473 L 416 474.5 Q 416.1 480.9 420.5 483 L 426 484.5 L 425.5 486 L 418.5 486 L 418.5 485 L 422 484.5 L 416 480.5 L 415 475 L 395.5 475 L 387 473 L 385 465 L 374.5 464 L 369.5 465 L 367 464 L 365 445 L 359.5 444 L 356 440.5 L 355 425 L 346 421.5 L 345 395.5 L 343.5 394 Q 337 395 336 390.5 L 336 366.5 L 334.5 365 L 327 363 Q 323.1 356.3 325 342.5 L 329.5 336 Z " /><path desc="l 7 p 17" fill="rgb(253,188,143)" stroke="rgb(253,188,143)" stroke-width="1" opacity="0.996078431372549" d="M 470.5 365 L 485 365.5 L 471.5 366 L 470 367.5 L 471 369.5 L 469.5 369 L 467.5 368 L 465.5 375 L 465 371.5 L 465 369.5 L 467.5 366 L 470.5 365 Z " /><path desc="l 7 p 18" fill="rgb(253,188,143)" stroke="rgb(253,188,143)" stroke-width="1" opacity="0.996078431372549" d="M 349.5 390 L 350 417.5 L 349 417.5 L 349.5 390 Z " /><path desc="l 7 p 19" fill="rgb(253,188,143)" stroke="rgb(253,188,143)" stroke-width="1" opacity="0.996078431372549" d="M 378 405 Q 389.4 402.9 394 408.5 L 395 415 L 405 415.5 L 395.5 416 L 390.5 407 L 385.5 406 L 383 407.5 L 388 408.5 L 380.5 410 L 381 408.5 L 382 406.5 L 380.5 406 L 378 407 L 378 405 Z " /><path desc="l 7 p 20" fill="rgb(253,188,143)" stroke="rgb(253,188,143)" stroke-width="1" opacity="0.996078431372549" d="M 84.5 431 L 85 445 Q 91.7 443.9 94 448.5 L 91.5 447 L 84 444.5 L 84.5 431 Z " /><path desc="l 7 p 21" fill="rgb(253,188,143)" stroke="rgb(253,188,143)" stroke-width="1" opacity="0.996078431372549" d="M 126.5 475 L 139.5 475 L 145 479.5 L 145.5 485 L 166.5 485 L 174 488.5 L 175 494.5 L 173 493.5 Q 174 489.8 171 491 L 172 493.5 L 170 494.5 L 169 487 L 163 487.5 L 163.5 489 Q 159.8 490 161 487 L 163 486.5 L 142 485 L 144 480.5 L 141.5 477 L 126.5 476 L 126.5 475 Z " /><path desc="l 7 p 22" fill="rgb(253,188,143)" stroke="rgb(253,188,143)" stroke-width="1" opacity="0.996078431372549" d="M 409.5 486 L 417 486.5 Q 409.5 486 407 490.5 L 408 497 Q 405 498.3 406 494.5 L 405 491.5 L 407 487 L 409.5 486 Z " /><path desc="l 7 p 23" fill="rgb(253,188,143)" stroke="rgb(253,188,143)" stroke-width="1" opacity="0.996078431372549" d="M 189.5 495 L 208.5 495 L 213 497.5 L 214 502.5 L 213 502.5 L 212 498 L 206.5 496 L 189.5 496 L 189.5 495 Z " /><path desc="l 7 p 24" fill="rgb(253,188,143)" stroke="rgb(253,188,143)" stroke-width="1" opacity="0.996078431372549" d="M 380.5 495 L 395 495.5 L 381 497 L 379.5 501 L 379 499.5 L 379.5 498 L 377 499.5 L 375.5 505 L 375 502.5 L 376 499.5 L 378.5 496 L 380.5 495 Z " /><path desc="l 7 p 25" fill="rgb(253,188,143)" stroke="rgb(253,188,143)" stroke-width="1" opacity="0.996078431372549" d="M 189.5 497 Q 195.5 495.8 194.5 499 L 207.5 499 L 207.5 500 L 190 499.5 L 193 498.5 L 189.5 497 Z " /><path desc="l 7 p 26" fill="rgb(253,188,143)" stroke="rgb(253,188,143)" stroke-width="1" opacity="0.996078431372549" d="M 215.5 505 L 255.5 505 L 260.5 506 L 264 509.5 L 265 515 L 324.5 515 L 325 511.5 L 329.5 506 L 373.5 505 L 373.5 506 L 335.5 506 L 330.5 507 L 327 510.5 L 325.5 516 L 263.5 515 L 262 515.5 L 263 512.5 L 259.5 507 L 241.5 506 L 238.5 507 L 215.5 506 L 215.5 505 Z " /><path desc="l 8 p 0" fill="rgb(255,254,248)" stroke="rgb(255,254,248)" stroke-width="1" opacity="0.9019607843137255" d="M 300.5 91 L 301 126.5 L 300 126.5 L 300.5 91 Z " /><path desc="l 8 p 1" fill="rgb(255,254,248)" stroke="rgb(255,254,248)" stroke-width="1" opacity="0.9019607843137255" d="M 140.5 201 L 142 226.5 L 140.5 229 L 140.5 201 Z " /><path desc="l 8 p 2" fill="rgb(255,254,248)" stroke="rgb(255,254,248)" stroke-width="1" opacity="0.9019607843137255" d="M 270.5 203 L 271 225.5 L 270 225.5 L 270.5 203 Z " /><path desc="l 8 p 3" fill="rgb(255,254,248)" stroke="rgb(255,254,248)" stroke-width="1" opacity="0.9019607843137255" d="M 124.5 332 L 137 333 L 138 347.5 L 141.5 351 L 151.5 352 L 162.5 351 L 167 353.5 L 172.5 361 L 177 362 L 178 375.5 L 180.5 380 L 187 382 L 188 385.5 L 185.5 388 L 174.5 388 L 165.5 376 L 162 373.5 L 160.5 371 L 152.5 369 L 145.5 378 L 135.5 378 L 132 374.5 Q 133.8 364.2 129.5 360 L 122 355.5 L 122 334.5 L 124.5 332 Z " /><path desc="l 8 p 4" fill="rgb(255,254,248)" stroke="rgb(255,254,248)" stroke-width="1" opacity="0.9019607843137255" d="M 203.5 333 L 208 334.5 L 208 346.5 L 210.5 350 L 218 354.5 L 219 366.5 L 223.5 372 L 227 374.5 L 228 384.5 L 227 387 L 214.5 388 L 212 387 Q 211.8 380.6 206.5 378 L 202 375.5 L 201 362.5 L 197.5 359 L 192 355.5 Q 190.1 346.1 194.5 343 L 199 341 L 203.5 333 Z " /><path desc="l 9 p 0" fill="rgb(255,254,214)" stroke="rgb(255,254,214)" stroke-width="1" opacity="0.996078431372549" d="M 218.5 141 L 219 145.5 L 217 146.5 Q 217.9 143.5 213.5 145 L 213.5 146 Q 216.3 145.4 215 151.5 Q 218.6 157.4 230.5 155 L 230.5 154 Q 222.5 154.5 219 150.5 L 224.5 150 L 277 151 Q 275.3 157.6 279 159.5 Q 277.5 162.5 276 159.5 L 275.5 155 L 275 165 L 285 166 L 284 187.5 L 286 195 L 289.5 196 L 292.5 195 L 295 196 L 295 224 L 276.5 224 L 275.5 226 L 295.5 225 L 297 223.5 L 297 195.5 L 294.5 193 L 291 192.5 L 298 192 L 300 194.5 L 300 227 L 290.5 228 L 290.5 226 L 285.5 228 L 270.5 229 L 270 226.5 L 271 203.5 L 270 199 L 252.5 198 L 240 199 L 240 229.5 L 241.5 232 L 259.5 230 L 259 231.5 L 257.5 233 L 238.5 234 L 235.5 229 L 235 235 L 250 235.5 L 241 237 L 242.5 240 L 244 240.5 L 244 269.5 L 245 277.5 L 244 283.5 L 254 289.5 L 257.5 295 Q 268.7 293.3 274 297.5 L 271 299.5 L 272 305 L 275 305.5 L 275 329.5 L 277.5 334 L 285 335 L 285 351.5 L 287 356.5 L 285 358.5 L 285 381.5 Q 287.5 386.3 295 385 Q 293.3 393 298.5 395 L 305 396 L 305 414 L 298.5 414 L 295 415 Q 296.8 407 291.5 405 L 268.5 405 L 265 408.5 L 265 420.5 L 268.5 425 L 275 425 L 275 430.5 L 278.5 435 L 285 437.5 L 287 445 L 295 446 L 295 453.5 L 293.5 455 L 265.5 455 L 265 450.5 L 262.5 446 L 245 445 Q 246.8 437 241.5 435 L 218.5 435 L 215 438.5 L 215 450.5 L 218 454.5 L 205 455 Q 206.3 448.5 202.5 446 L 185 445 Q 186.8 437 181.5 435 L 158.5 435 L 155 438.5 L 155 450.5 L 158 454.5 L 145 455 Q 146.3 448.5 142.5 446 L 136 445 Q 137 437.7 132.5 435 L 115 434 L 114 426 L 106 423.5 L 102.5 416 L 95 415 L 94 406 L 85 403 L 85 390.5 L 82.5 386 L 76 385 L 75 368.5 L 72.5 366 L 65 365 L 66 367.5 L 61 368 L 60 276.5 L 62 270.5 L 61 263 L 63 263.5 L 63 316.5 L 64.5 365 L 65 285 L 73 287 L 76.5 295 L 121.5 295 L 125 292.5 Q 123.8 286.4 126.5 287 L 135 282.5 L 136 242.5 L 135 237 L 129 235.5 L 135 234.5 L 125.5 233 L 122.5 234 L 120 233 L 120.5 231 L 134.5 231 L 136 231.5 L 136.5 230 L 138.5 231 L 142 226.5 L 140 199 L 137.5 198 L 135.5 198 L 110.5 199 L 108 198 L 108.5 196 L 111.5 197 L 111.5 195 L 119.5 195 Q 118.5 198 123.5 197 L 134.5 195 L 136.5 195 L 138 195.5 L 137.5 197 L 140.5 196 L 144 198.5 L 144.5 203 L 145 195.5 L 142.5 194 L 140.5 194 L 107.5 194 L 105 195 L 105.5 200 L 106.5 198 L 109 199 L 108 225.5 L 109 229 L 105.5 227 L 87.5 228 L 86.5 226 L 104.5 226 L 106 224.5 L 105 222 Q 108.3 223.1 107 219 L 105 218.5 L 106 207.5 L 104.5 200 L 103.5 225 L 85 224 L 85 207.5 L 86.5 207 L 94 202.5 L 95 196 L 105 193.5 L 106 185 Q 113.1 186.8 115 182.5 Q 113.5 176.5 116.5 175 L 131.5 175 L 135 171.5 L 136 166 L 144 164 L 145 155 Q 152.5 156.3 155 151.5 Q 156.5 143.9 153 145 L 149.5 152 L 143 154 Q 144.3 158.1 141 157 L 142 153.5 Q 139.3 151.8 143.5 150 L 150.5 150 L 151 147.5 L 150 142 L 218.5 141 Z M 241 194 L 235 197 L 236 202 L 236 199 L 243 195 L 253 197 L 254 195 L 267 197 L 271 195 L 241 194 Z M 145 204 L 143 207 L 144 211 L 144 225 L 146 225 L 147 217 L 155 216 L 155 215 Q 147 213 146 217 L 145 204 Z M 160 210 L 160 220 L 150 220 L 150 251 L 160 251 L 160 259 L 160 260 L 210 260 L 210 253 L 212 251 L 221 251 L 221 229 L 210 229 L 210 220 L 202 220 L 200 219 L 200 210 L 160 210 Z M 216 224 L 218 225 L 219 226 L 218 226 L 218 227 L 222 226 L 222 229 L 224 228 L 225 231 L 224 236 L 225 246 L 224 251 L 222 252 L 222 254 L 218 253 L 216 256 L 225 255 L 226 252 L 226 230 L 225 225 L 216 224 Z M 156 256 L 155 264 L 157 265 L 214 265 L 215 264 L 215 258 L 213 263 L 211 264 L 160 264 L 156 256 Z M 125 332 L 122 335 L 122 356 L 130 360 Q 134 364 132 375 L 136 378 L 146 378 L 153 369 L 161 371 L 162 374 L 166 376 L 175 388 L 186 388 L 188 386 L 187 382 L 181 380 L 178 376 L 177 362 L 173 361 L 167 354 L 163 351 L 152 352 L 142 351 L 138 348 L 137 333 L 125 332 Z M 204 333 L 199 341 L 195 343 Q 190 346 192 356 L 198 359 L 201 363 L 202 376 L 207 378 Q 212 381 212 387 L 215 388 L 227 387 L 228 385 L 227 375 L 224 372 L 219 367 L 218 355 L 211 350 L 208 347 L 208 335 L 204 333 Z " /><path desc="l 9 p 1" fill="rgb(255,254,214)" stroke="rgb(255,254,214)" stroke-width="1" opacity="0.996078431372549" d="M 285.5 161 L 289 162.5 L 289 179.5 L 287 180 L 287 166.5 L 285.5 165 L 284 162.5 L 285.5 161 Z " /><path desc="l 9 p 2" fill="rgb(255,254,214)" stroke="rgb(255,254,214)" stroke-width="1" opacity="0.996078431372549" d="M 118.5 170 L 120.5 172 L 126.5 172 L 126.5 173 L 115.5 174 L 114 175.5 Q 115 182 110.5 183 L 103 185 L 102.5 188 L 102 185.5 L 103 181 L 101 180.5 L 102.5 180 L 104.5 181 L 111 180 L 113 173 L 118.5 170 Z " /><path desc="l 9 p 7" fill="rgb(255,254,214)" stroke="rgb(255,254,214)" stroke-width="1" opacity="0.996078431372549" d="M 495.5 230 L 496 232 L 498 232.5 L 498 239.5 L 497 255 Q 500.3 253.7 499 258.5 L 499 260.5 L 497.5 263 L 496 260.5 L 495 255.5 L 496 247.5 L 494.5 234 L 494 236 Q 490.7 237.3 492 232.5 L 494 232.5 L 495.5 230 Z " /><path desc="l 9 p 8" fill="rgb(255,254,214)" stroke="rgb(255,254,214)" stroke-width="1" opacity="0.996078431372549" d="M 122.5 236 L 130.5 237 L 134 240.5 L 133.5 275 L 132 272.5 L 132 255.5 L 133 248.5 L 132 240 L 124.5 239 L 122.5 239 L 121 237.5 L 122.5 236 Z " /><path desc="l 9 p 9" fill="rgb(255,254,214)" stroke="rgb(255,254,214)" stroke-width="1" opacity="0.996078431372549" d="M 256.5 236 L 258 238.5 L 255.5 240 L 250.5 239 L 248 240 L 248 276.5 L 249 279 Q 246 280.3 247 276.5 L 246 270.5 L 247 240.5 L 250.5 237 L 256.5 236 Z " /><path desc="l 9 p 10" fill="rgb(255,254,214)" stroke="rgb(255,254,214)" stroke-width="1" opacity="0.996078431372549" d="M 491 240 Q 495.9 238.2 494 244.5 L 493 268.5 L 489.5 272 L 491 269.5 L 491 240 Z " /><path desc="l 9 p 11" fill="rgb(255,254,214)" stroke="rgb(255,254,214)" stroke-width="1" opacity="0.996078431372549" d="M 533.5 240 L 537.5 241 L 540 240 L 540 258 L 532.5 258 L 532.5 257 Q 536.3 258.3 535 254.5 L 534 251.5 L 535 245 L 532.5 244 L 531 244.5 Q 529.5 240.1 532.5 241 L 533.5 240 Z " /><path desc="l 9 p 12" fill="rgb(255,254,214)" stroke="rgb(255,254,214)" stroke-width="1" opacity="0.996078431372549" d="M 66.5 253 L 68 254.5 L 68 276.5 L 69 279 Q 66 280.3 67 276.5 L 66 270.5 L 67 256.5 L 66.5 253 Z " /><path desc="l 9 p 13" fill="rgb(255,254,214)" stroke="rgb(255,254,214)" stroke-width="1" opacity="0.996078431372549" d="M 521.5 253 L 525 254.5 Q 521 258 523 267.5 L 524 270 L 521 269.5 L 521.5 253 Z " /><path desc="l 9 p 15" fill="rgb(255,254,214)" stroke="rgb(255,254,214)" stroke-width="1" opacity="0.996078431372549" d="M 472 282 L 478 282.5 L 475 283 L 474 285.5 L 474 304.5 Q 475.5 307.5 477 304.5 L 478.5 300 Q 481.5 299.1 480 303.5 L 476.5 308 L 473 307 L 471 304.5 L 471 285.5 L 470.5 284 L 472 282 Z " /><path desc="l 9 p 16" fill="rgb(255,254,214)" stroke="rgb(255,254,214)" stroke-width="1" opacity="0.996078431372549" d="M 512 282 L 517 282.5 L 513 285.5 L 513 304.5 L 515.5 307 L 517.5 307 L 520 307.5 L 518 308.5 L 520 309.5 L 517 310 L 517 308 L 512 308 L 512 305.5 L 511 302.5 L 512 294.5 L 510 294.5 L 511 285.5 L 510.5 284 L 512 282 Z " /><path desc="l 9 p 17" fill="rgb(255,254,214)" stroke="rgb(255,254,214)" stroke-width="1" opacity="0.996078431372549" d="M 484.5 284 L 485 294 L 478.5 294 L 478 295.5 L 475.5 299 L 475 286 L 478.5 287 L 484.5 284 Z " /><path desc="l 9 p 18" fill="rgb(255,254,214)" stroke="rgb(255,254,214)" stroke-width="1" opacity="0.996078431372549" d="M 487.5 284 Q 490.5 285.5 489 291.5 L 487 300 L 480 298.5 L 487 294.5 L 487.5 284 Z " /><path desc="l 9 p 19" fill="rgb(255,254,214)" stroke="rgb(255,254,214)" stroke-width="1" opacity="0.996078431372549" d="M 81.5 291 L 118.5 292 L 120 291.5 L 118.5 293 L 83.5 294 L 81 293 L 81.5 291 Z " /><path desc="l 9 p 20" fill="rgb(255,254,214)" stroke="rgb(255,254,214)" stroke-width="1" opacity="0.996078431372549" d="M 261 291 L 276.5 292 L 280 294.5 L 277.5 296 L 274.5 294 L 261 293 L 261 291 Z " /><path desc="l 9 p 21" fill="rgb(255,254,214)" stroke="rgb(255,254,214)" stroke-width="1" opacity="0.996078431372549" d="M 277 300 L 279 300.5 L 279 328.5 L 278 328.5 L 277 300 Z " /><path desc="l 9 p 22" fill="rgb(255,254,214)" stroke="rgb(255,254,214)" stroke-width="1" opacity="0.996078431372549" d="M 374 311 Q 377.7 309.6 376 315.5 L 374 315.5 L 373 323.5 L 375.5 327 L 381 329.5 L 372.5 330 L 371 328.5 L 371 313.5 L 373.5 315 L 375 313.5 L 374 311 Z " /><path desc="l 9 p 23" fill="rgb(255,254,214)" stroke="rgb(255,254,214)" stroke-width="1" opacity="0.996078431372549" d="M 383.5 322 Q 393.3 318.8 390 328.5 L 389.5 330 L 405.5 330 L 408 332.5 L 407 334.5 L 408 337.5 L 407 337.5 L 404.5 333 L 392.5 333 L 388 329.5 L 386 323 L 383.5 322 Z " /><path desc="l 9 p 24" fill="rgb(255,254,214)" stroke="rgb(255,254,214)" stroke-width="1" opacity="0.996078431372549" d="M 279.5 330 L 287.5 330 L 288 331.5 L 289 333.5 L 289 335.5 L 289 348.5 L 287 349 L 288 346.5 L 287 335.5 L 284.5 333 L 279.5 330 Z " /><path desc="l 9 p 25" fill="rgb(255,254,214)" stroke="rgb(255,254,214)" stroke-width="1" opacity="0.996078431372549" d="M 501 330 L 507.5 331 L 510 330 L 510 349 L 501.5 349 L 497 346.5 L 497.5 345 L 499.5 348 L 508 345.5 L 504 343.5 L 505 334.5 L 503 335.5 L 502.5 337 L 501 330 Z " /><path desc="l 9 p 28" fill="rgb(255,254,214)" stroke="rgb(255,254,214)" stroke-width="1" opacity="0.996078431372549" d="M 390.5 335 L 403.5 335 L 404 337.5 L 407.5 345 L 417.5 346 L 487 345 L 485 355 L 439.5 355 L 435 358.5 L 434 369.5 L 436 373.5 L 434.5 375 L 425 375 Q 426.3 368.5 422.5 366 L 415 365 L 412.5 356 L 399.5 355 L 396 357.5 L 395 370.5 L 398.5 375 L 404 376 L 407.5 384 L 415 385 L 415 393.5 L 416.5 395 L 440.5 395 L 444 392.5 L 446.5 384 L 468.5 385 L 470.5 387 L 472.5 385 L 485 384.5 L 480 384 Q 481.2 380.3 476 382 L 475.5 384 L 466.5 384 L 453 382.5 L 464.5 382 L 469.5 380 L 469.5 381 L 468 381.5 Q 469.5 384.5 471 381.5 L 471.5 380 L 487.5 380 Q 490.8 381.8 487 383.5 L 485 385.5 L 485 395 L 479.5 395 L 476 397.5 L 475 404 L 458.5 405 L 455 408.5 L 453.5 414 L 446.5 415 L 445 408.5 L 441.5 405 L 419.5 405 L 415 404 L 414 396 L 395 395 Q 396.7 387.9 392.5 386 L 385 385 Q 386.8 377 381.5 375 L 376 374 L 372.5 366 L 365 363.5 Q 363.2 356.8 366.5 355 L 389.5 355 L 394 352.5 L 395 339.5 L 392.5 336 L 390.5 335 Z " /><path desc="l 9 p 29" fill="rgb(255,254,214)" stroke="rgb(255,254,214)" stroke-width="1" opacity="0.996078431372549" d="M 420.5 342 L 495 342.5 L 420.5 343 L 420.5 342 Z " /><path desc="l 9 p 30" fill="rgb(255,254,214)" stroke="rgb(255,254,214)" stroke-width="1" opacity="0.996078431372549" d="M 488.5 351 L 489 353.5 L 488 355.5 L 490 359.5 L 483.5 360 L 480.5 359 L 439.5 360 L 440.5 358 L 484.5 357 L 487 354.5 L 488.5 351 Z " /><path desc="l 9 p 31" fill="rgb(255,254,214)" stroke="rgb(255,254,214)" stroke-width="1" opacity="0.996078431372549" d="M 294.5 352 Q 301.7 349.7 299 357.5 L 294.5 360 L 292.5 359 L 289 360 L 289 378.5 L 287 379 L 288 376.5 L 287 361.5 L 296 355.5 L 294.5 353 L 294.5 352 Z " /><path desc="l 9 p 32" fill="rgb(255,254,214)" stroke="rgb(255,254,214)" stroke-width="1" opacity="0.996078431372549" d="M 361.5 352 L 387 352.5 L 365.5 353 L 363 355.5 L 364 367 L 366 367.5 L 360 368 L 361 358.5 L 360 353.5 L 361.5 352 Z " /><path desc="l 9 p 33" fill="rgb(255,254,214)" stroke="rgb(255,254,214)" stroke-width="1" opacity="0.996078431372549" d="M 420.5 369 L 425.5 377 L 435 377.5 L 420 378 L 420.5 369 Z " /><path desc="l 9 p 34" fill="rgb(255,254,214)" stroke="rgb(255,254,214)" stroke-width="1" opacity="0.996078431372549" d="M 72.5 371 L 75 387 L 81 389.5 L 73.5 390 Q 70.5 388.5 72 382.5 L 73 380 L 71 378.5 L 73 378.5 L 72 376.5 L 71 373.5 L 72.5 371 Z " /><path desc="l 9 p 35" fill="rgb(255,254,214)" stroke="rgb(255,254,214)" stroke-width="1" opacity="0.996078431372549" d="M 414.5 382 L 420 382 L 420 388.5 L 419.5 390 L 441 390.5 L 437.5 393 L 421.5 393 L 416 383 L 414.5 382 Z " /><path desc="l 9 p 36" fill="rgb(255,254,214)" stroke="rgb(255,254,214)" stroke-width="1" opacity="0.996078431372549" d="M 382.5 386 L 392 390.5 L 394 397 L 406 397.5 L 391.5 398 L 390 391.5 L 390.5 390 Q 382.8 391.8 381 387.5 L 382.5 386 Z " /><path desc="l 9 p 37" fill="rgb(255,254,214)" stroke="rgb(255,254,214)" stroke-width="1" opacity="0.996078431372549" d="M 304.5 390 L 307 391.5 Q 310.4 399.1 309 411.5 L 307 420 L 300.5 418 L 291 420 L 292.5 413 L 295.5 417 L 307 416 L 307 394.5 L 305.5 394 L 302 393 L 303.5 391 L 304.5 390 Z " /><path desc="l 9 p 38" fill="rgb(255,254,214)" stroke="rgb(255,254,214)" stroke-width="1" opacity="0.996078431372549" d="M 81.5 391 L 83 393.5 L 83 404.5 L 85.5 407 L 88 407.5 L 82 408 L 81.5 391 Z " /><path desc="l 9 p 39" fill="rgb(255,254,214)" stroke="rgb(255,254,214)" stroke-width="1" opacity="0.996078431372549" d="M 479.5 399 L 480 405.5 Q 479 409 473.5 408 L 466 407 L 465.5 409 L 465 406 L 477 405 L 479.5 399 Z " /><path desc="l 9 p 40" fill="rgb(255,254,214)" stroke="rgb(255,254,214)" stroke-width="1" opacity="0.996078431372549" d="M 90.5 409 L 95.5 417 L 101 419.5 L 91.5 420 L 91 417.5 L 90.5 409 Z " /><path desc="l 9 p 41" fill="rgb(255,254,214)" stroke="rgb(255,254,214)" stroke-width="1" opacity="0.996078431372549" d="M 180.5 439 L 185.5 447 L 197.5 447 L 201 449.5 L 181.5 450 L 180 448.5 L 180.5 439 Z " /><path desc="l 9 p 42" fill="rgb(255,254,214)" stroke="rgb(255,254,214)" stroke-width="1" opacity="0.996078431372549" d="M 240.5 439 L 245.5 447 L 257.5 447 L 261 449.5 L 241.5 450 L 240 448.5 L 240.5 439 Z " /><path desc="l 9 p 43" fill="rgb(255,254,214)" stroke="rgb(255,254,214)" stroke-width="1" opacity="0.996078431372549" d="M 294.5 442 L 299 442 L 299 448.5 L 299 450.5 L 300 456.5 L 298.5 458 L 263 458 L 263.5 456 L 296 457 L 297 445.5 L 294.5 442 Z " /><path desc="l 9 p 44" fill="rgb(255,254,214)" stroke="rgb(255,254,214)" stroke-width="1" opacity="0.996078431372549" d="M 159.5 450 Q 166.5 448.5 168 452.5 Q 169.3 458.6 166.5 458 L 164.5 458 L 143.5 458 L 143 456.5 L 144.5 457 L 164.5 457 L 166 455.5 L 164.5 453 L 159.5 450 Z " /><path desc="l 9 p 45" fill="rgb(255,254,214)" stroke="rgb(255,254,214)" stroke-width="1" opacity="0.996078431372549" d="M 219.5 450 Q 226.5 448.5 228 452.5 Q 229.3 458.6 226.5 458 L 224.5 458 L 203.5 458 L 203 456.5 L 204.5 457 L 224.5 457 L 226 455.5 L 224.5 453 L 219.5 450 Z " /><path desc="l 10 p 0" fill="rgb(254,248,203)" stroke="rgb(254,248,203)" stroke-width="1" opacity="0.996078431372549" d="M 150.5 140 L 220 140.5 L 150.5 141 L 150.5 140 Z " /><path desc="l 10 p 1" fill="rgb(254,248,203)" stroke="rgb(254,248,203)" stroke-width="1" opacity="0.996078431372549" d="M 153.5 145 L 154 147.5 L 150.5 153 L 144 155.5 L 140.5 163 L 134 166.5 L 130.5 173 L 121.5 174 L 121.5 173 L 129 171.5 L 127 170.5 L 130 170 L 130 161.5 L 131.5 160 L 142 159 L 143 154 L 152 149.5 L 153.5 145 Z " /><path desc="l 10 p 2" fill="rgb(254,248,203)" stroke="rgb(254,248,203)" stroke-width="1" opacity="0.996078431372549" d="M 247.5 150 L 270 150.5 L 247.5 151 L 247.5 150 Z " /><path desc="l 10 p 3" fill="rgb(254,248,203)" stroke="rgb(254,248,203)" stroke-width="1" opacity="0.996078431372549" d="M 289.5 161 L 290 190 L 300 190.5 L 290 191.5 L 297 195.5 L 297 223.5 L 295.5 225 L 296 223.5 L 296 195.5 L 294.5 194 Q 288.7 194.8 287 191.5 L 285 165.5 L 287 166.5 L 287 187.5 L 288.5 191 L 289.5 161 Z " /><path desc="l 10 p 4" fill="rgb(254,248,203)" stroke="rgb(254,248,203)" stroke-width="1" opacity="0.996078431372549" d="M 100.5 180 L 101.5 191 L 103.5 185 L 104 189.5 L 101.5 193 L 94 195.5 L 92 202 L 84 204 L 84 217.5 L 80.5 223 L 74 226.5 L 75.5 231 L 77 227 L 82.5 225 L 102.5 225 L 102.5 226 L 83.5 226 L 78 228 L 76 235 L 74 233.5 L 73 226.5 L 75.5 223 Q 80.3 224.3 79 221 L 73.5 222 L 71 221 L 73 224.5 L 71 224.5 L 70.5 240 L 70 220 L 82 219 L 83 204.5 L 84.5 203 L 92 199.5 L 95.5 193 L 101 191.5 L 90 190.5 L 100 190 L 100.5 180 Z " /><path desc="l 10 p 5" fill="rgb(254,248,203)" stroke="rgb(254,248,203)" stroke-width="1" opacity="0.996078431372549" d="M 83 228 L 86.5 229 L 105.5 229 L 107.5 229 L 109 229.5 L 83 230 L 83 228 Z " /><path desc="l 10 p 6" fill="rgb(254,248,203)" stroke="rgb(254,248,203)" stroke-width="1" opacity="0.996078431372549" d="M 490.5 230 L 491.5 270 L 493 268.5 L 494 240.5 L 493 236.5 L 494.5 234 L 496 254.5 L 494 254.5 L 494 268.5 L 490.5 273 L 484 275.5 Q 483.9 281.9 479.5 284 L 475 283.5 L 480 281.5 L 471.5 281 L 470 281.5 L 470.5 280 L 479.5 280 L 482 279.5 L 484 273 L 491 270.5 L 490.5 230 Z " /><path desc="l 10 p 7" fill="rgb(254,248,203)" stroke="rgb(254,248,203)" stroke-width="1" opacity="0.996078431372549" d="M 250.5 236 L 254 236.5 L 247 240.5 L 246.5 270 L 246 240.5 L 248.5 237 L 250.5 236 Z " /><path desc="l 10 p 8" fill="rgb(254,248,203)" stroke="rgb(254,248,203)" stroke-width="1" opacity="0.996078431372549" d="M 130.5 240 L 132 247.5 L 131 270.5 L 132.5 280 L 134 276.5 L 134.5 243 L 135 278.5 L 133 283 L 124.5 286 L 125.5 284 L 132 281.5 L 131.5 280 L 124.5 282 L 124.5 281 L 130 279.5 L 131 273.5 L 130 248.5 L 130 246.5 L 131 242.5 L 130.5 240 Z " /><path desc="l 10 p 9" fill="rgb(254,248,203)" stroke="rgb(254,248,203)" stroke-width="1" opacity="0.996078431372549" d="M 249.5 240 L 250 280 L 253 281.5 L 251.5 282 L 249 279.5 L 249.5 240 Z " /><path desc="l 10 p 10" fill="rgb(254,248,203)" stroke="rgb(254,248,203)" stroke-width="1" opacity="0.996078431372549" d="M 533.5 245 L 534 247.5 L 530.5 253 Q 529 249.5 522.5 251 L 521 252.5 L 521 280.5 L 522 280.5 L 523.5 270 L 524 274 L 526 273.5 L 526 261.5 L 528.5 257 L 534.5 256 L 534.5 257 L 530 258.5 L 540 259.5 L 530 260 L 530 289.5 L 520.5 290 L 520.5 292 L 518 291 L 517 300.5 L 518 302.5 L 515.5 307 L 513 304.5 L 513 285.5 L 520 281.5 L 510 280.5 L 520 280 L 520 250.5 L 529.5 250 L 532 249 L 533.5 245 Z M 528 259 L 527 263 L 527 285 L 526 285 L 526 284 Q 528 277 525 275 L 523 282 L 514 286 L 514 305 L 516 306 L 517 290 L 522 286 L 525 287 L 521 287 Q 520 291 528 289 L 529 288 L 530 260 L 528 259 Z " /><path desc="l 10 p 11" fill="rgb(254,248,203)" stroke="rgb(254,248,203)" stroke-width="1" opacity="0.996078431372549" d="M 69.5 255 L 70 280 L 73 281.5 L 71 282.5 L 74 284.5 L 72.5 285 L 67 281.5 L 66 276.5 L 67 276.5 L 69.5 282 L 71 281.5 L 69 279.5 L 69.5 255 Z " /><path desc="l 10 p 12" fill="rgb(254,248,203)" stroke="rgb(254,248,203)" stroke-width="1" opacity="0.996078431372549" d="M 63.5 256 L 64 316.5 L 63 316.5 L 63.5 256 Z " /><path desc="l 10 p 14" fill="rgb(254,248,203)" stroke="rgb(254,248,203)" stroke-width="1" opacity="0.996078431372549" d="M 165.5 264 L 207 264.5 L 165.5 265 L 165.5 264 Z " /><path desc="l 10 p 15" fill="rgb(254,248,203)" stroke="rgb(254,248,203)" stroke-width="1" opacity="0.996078431372549" d="M 495.5 275 L 493.5 278 L 489 279 Q 485.7 283.9 487 294.5 L 484.5 297 L 477.5 301 L 477 299.5 L 486 294.5 L 487 280.5 L 490.5 277 L 495.5 275 Z " /><path desc="l 10 p 16" fill="rgb(254,248,203)" stroke="rgb(254,248,203)" stroke-width="1" opacity="0.996078431372549" d="M 76.5 280 L 80 282.5 L 79 287.5 L 80 290 L 120 290.5 L 80.5 291 L 78.5 290 L 79.5 292 L 83 293.5 L 80.5 294 L 76 290.5 L 78 287.5 L 79 285.5 L 76.5 282 L 74 281.5 L 76.5 280 Z " /><path desc="l 10 p 17" fill="rgb(254,248,203)" stroke="rgb(254,248,203)" stroke-width="1" opacity="0.996078431372549" d="M 256.5 280 L 259 281 L 260 283.5 L 260 285.5 L 259 287.5 L 260 290 L 279.5 290 L 280 292 L 258.5 290 L 259.5 292 L 263 293.5 L 260.5 294 L 256 290.5 L 258 287.5 Q 260.8 285.8 256.5 284 L 255 282.5 L 254.5 281 L 256.5 280 Z " /><path desc="l 10 p 18" fill="rgb(254,248,203)" stroke="rgb(254,248,203)" stroke-width="1" opacity="0.996078431372549" d="M 123.5 287 L 124 289.5 L 121.5 293 L 90.5 294 L 90.5 293 L 118.5 293 L 123 289.5 L 123.5 287 Z " /><path desc="l 10 p 19" fill="rgb(254,248,203)" stroke="rgb(254,248,203)" stroke-width="1" opacity="0.996078431372549" d="M 276.5 295 L 278 299.5 L 277 325.5 L 280.5 332 L 287 335.5 L 287 348.5 L 289 349 L 289.5 330 L 291 352 L 296 353 L 294.5 357 L 289 359.5 L 291 382 L 297 385.5 L 300.5 392 L 307 394 L 307 415.5 L 305.5 416 L 295.5 417 L 295.5 416 L 304.5 416 L 306 414.5 L 306 395.5 L 304.5 394 L 297 390.5 L 294.5 384 L 287 380.5 L 286 361.5 L 289.5 357 L 295 356 Q 296.3 353 292.5 354 L 287 350.5 L 286 335.5 L 284.5 334 L 278 332 L 276 326.5 L 276.5 295 Z " /><path desc="l 10 p 20" fill="rgb(254,248,203)" stroke="rgb(254,248,203)" stroke-width="1" opacity="0.996078431372549" d="M 370 310 L 380 310 L 380 319.5 L 381 322 L 386 323 L 390.5 332 L 404.5 333 L 407 335.5 L 408.5 341 L 409.5 330 L 410 340 L 499.5 340 L 502 339 L 504.5 334 L 504 335.5 L 500.5 343 L 498.5 341 L 410.5 341 L 411.5 343 L 499 343.5 L 410.5 344 L 407 341.5 L 404.5 334 Q 391.7 336.3 387 330.5 L 384.5 324 L 377 320.5 L 376 315.5 L 377 315.5 Q 375.7 320.3 379 319 L 377.5 311 L 371 312.5 L 370.5 330 L 370 310 Z " /><path desc="l 10 p 21" fill="rgb(254,248,203)" stroke="rgb(254,248,203)" stroke-width="1" opacity="0.996078431372549" d="M 64.5 320 L 65 364.5 L 64 364.5 L 64.5 320 Z " /><path desc="l 10 p 22" fill="rgb(254,248,203)" stroke="rgb(254,248,203)" stroke-width="1" opacity="0.996078431372549" d="M 374.5 325 L 382 328 L 384 336 L 392 338 L 394 347.5 L 392 352 L 386.5 354 L 365.5 354 L 364 355.5 L 364 364.5 L 365.5 366 L 373 369.5 L 374 374.5 L 373 374.5 Q 374.3 369.7 371 371 L 372.5 379 Q 380.1 380.5 379 377 L 375 376.5 L 378.5 376 L 383 379.5 L 385.5 386 L 393 389.5 L 395.5 396 Q 406.7 394.6 412 398 L 415.5 406 L 438.5 406 L 443 409.5 L 444 414.5 L 443 414.5 L 442 411 L 439.5 410 L 410 409.5 L 439 409 L 438.5 407 L 415.5 407 L 411 399 Q 405.2 395.5 394 397 L 389.5 388 L 383 386 L 382 381 L 370 380 L 369 368 L 364 367 L 363 355.5 L 365.5 353 L 386.5 353 L 392 349.5 L 393 342.5 L 390.5 339 L 383 335.5 L 379.5 328 L 374.5 325 Z " /><path desc="l 10 p 23" fill="rgb(254,248,203)" stroke="rgb(254,248,203)" stroke-width="1" opacity="0.996078431372549" d="M 496.5 345 L 497 347 L 491 347 L 491 349 L 497.5 348 L 500 349.5 L 490 350.5 L 490.5 352 L 488 351 L 484.5 357 L 442.5 357 L 439 359.5 L 440 370 L 450 370.5 L 440 371.5 L 447 375.5 L 449 381 L 453.5 383 L 466 383.5 L 452.5 384 L 447 380.5 L 444.5 374 Q 438.7 374.8 437 371.5 L 436 361.5 L 439.5 357 L 484.5 356 L 486 354.5 L 487 350 L 490 349.5 L 488 348.5 L 496.5 345 Z " /><path desc="l 10 p 24" fill="rgb(254,248,203)" stroke="rgb(254,248,203)" stroke-width="1" opacity="0.996078431372549" d="M 402.5 356 L 412 358 L 414 366 Q 420.5 365.8 423 370.5 L 422.5 372 L 420.5 369 L 413 365.5 L 409.5 358 L 402.5 357 L 399 359.5 L 397 366.5 L 398 369 L 400.5 368 L 400.5 370 L 410.5 369 L 411.5 371 L 410 371.5 L 410 379.5 L 411 382 L 416 383 L 421.5 393 L 437.5 393 L 441 390.5 L 443 383.5 L 442 381 L 439.5 380 L 417 379.5 L 438.5 379 L 440.5 377 Q 444.7 379.3 444 386.5 L 442 392 L 437.5 394 L 421.5 394 L 417 390.5 L 414.5 384 L 407 380.5 L 406 375 L 397 370.5 L 396 363.5 L 398 358 L 402.5 356 Z " /><path desc="l 10 p 25" fill="rgb(254,248,203)" stroke="rgb(254,248,203)" stroke-width="1" opacity="0.996078431372549" d="M 65.5 366 L 73 369.5 L 74 374.5 L 73 374.5 Q 74.3 369.7 71 371 L 70.5 380 L 69 368 L 65.5 366 Z " /><path desc="l 10 p 26" fill="rgb(254,248,203)" stroke="rgb(254,248,203)" stroke-width="1" opacity="0.996078431372549" d="M 75.5 386 L 82 388 L 84 392.5 L 84 404.5 L 85.5 406 L 93 409.5 L 92.5 411 L 89.5 410 L 80 409.5 L 90 408.5 L 83 404.5 Q 85.1 392.4 79.5 388 L 75.5 386 Z " /><path desc="l 10 p 27" fill="rgb(254,248,203)" stroke="rgb(254,248,203)" stroke-width="1" opacity="0.996078431372549" d="M 271.5 406 L 288 406.5 L 271.5 407 L 270 408.5 L 289 409 L 290.5 407 L 294 414.5 L 293 414.5 L 292 411 L 269.5 409 Q 266 411 267 417.5 L 270.5 422 L 277 424 L 278 429 L 280.5 428 L 280.5 430 L 290 430 L 290 439.5 L 291 442 L 297 445.5 L 296 457 L 264.5 457 L 263 455.5 L 259.5 448 L 245.5 447 L 243 444.5 L 240.5 439 L 220 440.5 L 220.5 442 L 218 441 L 217 446.5 L 219 451 L 226 454.5 L 224.5 457 L 204.5 457 L 203 455.5 L 199.5 448 L 185.5 447 L 183 444.5 L 180.5 439 L 160 440.5 L 160.5 442 L 158 441 L 157 446.5 L 159 451 L 166 454.5 L 164.5 457 L 144.5 457 L 143 455.5 L 139.5 448 L 133 444.5 L 131.5 439 L 130.5 450 L 130 440 L 110 439.5 L 130 438.5 L 127.5 437 L 115.5 437 L 112 433.5 L 111 429 L 103 424.5 L 101.5 420 L 100.5 430 L 100 420.5 L 99.5 418 L 93 414.5 L 93.5 412 L 95.5 416 L 103 419.5 L 105.5 426 L 112 428 L 115.5 436 L 129.5 436 L 133 438.5 L 135.5 446 L 142 448 L 144 456 L 164.5 456 L 165 454 L 158 452 L 156 443.5 L 159.5 437 L 161.5 439 L 179.5 439 L 178.5 437 L 162 436.5 L 178.5 436 L 183 439.5 L 185.5 446 Q 197.1 444.3 202 448 L 204 456 L 224.5 456 L 225 454 L 218 452 L 216 443.5 L 219.5 437 L 221.5 439 L 239.5 439 L 238.5 437 L 222 436.5 L 238.5 436 L 243 439.5 L 245.5 446 Q 257.1 444.3 262 448 L 264 456 L 294.5 456 L 296 454.5 L 296 445.5 L 294.5 444 L 287 440.5 L 286 434.5 L 287 434.5 Q 285.3 440.4 289 439 L 287.5 431 Q 279.9 429.5 281 433 L 285 433.5 L 281.5 434 L 277 430.5 L 274.5 424 L 267 420.5 L 266 411.5 L 269.5 407 L 271.5 406 Z " /><path desc="l 10 p 28" fill="rgb(254,248,203)" stroke="rgb(254,248,203)" stroke-width="1" opacity="0.996078431372549" d="M 461.5 406 L 465 406.5 L 461 407 L 461.5 409 L 469.5 409 L 469.5 410 L 460 410.5 L 460.5 412 L 458 411 L 456.5 415 L 456 412.5 L 459.5 407 L 461.5 406 Z " /><path desc="l 11 p 0" fill="rgb(254,207,164)" stroke="rgb(254,207,164)" stroke-width="1" opacity="0.9490196078431372" d="M 90 180 L 100 180.5 L 91 182.5 L 92 190 L 89.5 192 L 84.5 192 L 81 193.5 L 82 196.5 L 81 198.5 L 90 199.5 L 80 200 L 79 191.5 L 80.5 190 L 90 190 L 90 180 Z " /><path desc="l 11 p 1" fill="rgb(254,207,164)" stroke="rgb(254,207,164)" stroke-width="1" opacity="0.9490196078431372" d="M 70 199 Q 77.2 197.5 80 201.5 L 79.5 220 L 79 202 L 76.5 201 L 72 203.5 L 73 219.5 L 70 220 Q 71.1 223.5 63.5 222 L 61 223 L 61 249.5 L 60 252 L 52 253.5 L 51 316.5 L 50.5 319 L 49 318.5 L 49 250 L 60 250 L 60 220.5 L 70 220 L 70 199 Z " /><path desc="l 11 p 2" fill="rgb(254,207,164)" stroke="rgb(254,207,164)" stroke-width="1" opacity="0.9490196078431372" d="M 110.5 199 L 119 199.5 L 110 200 L 109.5 219 L 109 200.5 L 110.5 199 Z " /><path desc="l 11 p 3" fill="rgb(254,207,164)" stroke="rgb(254,207,164)" stroke-width="1" opacity="0.9490196078431372" d="M 487.5 233 L 488 264.5 L 487 264.5 L 487.5 233 Z " /><path desc="l 11 p 4" fill="rgb(254,207,164)" stroke="rgb(254,207,164)" stroke-width="1" opacity="0.9490196078431372" d="M 250.5 245 L 251 274.5 L 250 274.5 L 250.5 245 Z " /><path desc="l 11 p 5" fill="rgb(254,207,164)" stroke="rgb(254,207,164)" stroke-width="1" opacity="0.9490196078431372" d="M 520.5 295 L 521 309.5 L 519.5 311 L 510.5 311 L 510.5 310 L 520 310 L 520.5 295 Z " /><path desc="l 11 p 6" fill="rgb(254,207,164)" stroke="rgb(254,207,164)" stroke-width="1" opacity="0.9490196078431372" d="M 360 348 L 362.5 349 L 390 349.5 L 360 350 L 360 348 Z " /><path desc="l 11 p 7" fill="rgb(254,207,164)" stroke="rgb(254,207,164)" stroke-width="1" opacity="0.9490196078431372" d="M 79.5 390 L 81 411.5 L 80 411.5 L 78.5 410 L 79 408.5 L 79.5 390 Z " /><path desc="l 11 p 8" fill="rgb(254,207,164)" stroke="rgb(254,207,164)" stroke-width="1" opacity="0.9490196078431372" d="M 139.5 450 L 140 460 L 169.5 460 L 170 458.5 L 172 459.5 L 170 460 L 168.5 462 L 139 461 L 139.5 450 Z " /><path desc="l 11 p 9" fill="rgb(254,207,164)" stroke="rgb(254,207,164)" stroke-width="1" opacity="0.9490196078431372" d="M 199.5 450 L 200 460 L 229.5 460 L 230 458.5 L 232 459.5 L 230 460 L 228.5 462 L 199 461 L 199.5 450 Z " /><path desc="l 11 p 10" fill="rgb(254,207,164)" stroke="rgb(254,207,164)" stroke-width="1" opacity="0.9490196078431372" d="M 259.5 450 L 260 460 L 299.5 460 L 300 461.5 L 298 462.5 L 297.5 461 L 259.5 461 L 259.5 450 Z " /><path desc="l 12 p 0" fill="rgb(125,69,42)" stroke="rgb(125,69,42)" stroke-width="1" opacity="0.9372549019607843" d="M 252.5 79 L 254.5 80 L 270.5 79 L 276.5 80 L 278.5 79 L 280.5 80 L 284.5 79 L 286.5 79 L 290 80.5 L 290 90 L 300 90.5 L 300 140 L 290 140 L 290 149.5 L 287 150 L 289.5 138 L 299 137 L 299 91.5 L 290.5 91 L 288 90 L 286.5 82 L 255.5 81 L 253.5 82 L 251 80.5 L 252.5 79 Z " /><path desc="l 12 p 1" fill="rgb(125,69,42)" stroke="rgb(125,69,42)" stroke-width="1" opacity="0.9372549019607843" d="M 150.5 138 L 220.5 138 L 222 139.5 L 220.5 139 L 150.5 139 L 150.5 138 Z " /><path desc="l 12 p 2" fill="rgb(125,69,42)" stroke="rgb(125,69,42)" stroke-width="1" opacity="0.9372549019607843" d="M 330 190 L 341 190 L 341 194.5 L 341 196.5 L 340 199.5 L 341.5 200 L 343.5 199 L 345.5 199 L 358.5 199 L 360 200.5 L 360 210 L 380 210 L 380 220 L 399.5 220 L 401 219.5 L 401 228.5 L 399.5 230 L 380.5 230 L 380 220 L 360 220 L 360 210 L 340 210 L 340 249.5 L 330 250 L 330 190 Z " /><path desc="l 12 p 3" fill="rgb(125,69,42)" stroke="rgb(125,69,42)" stroke-width="1" opacity="0.9372549019607843" d="M 110 200 L 120 200 L 120 221 L 110 221 L 110 200 Z " /><path desc="l 12 p 4" fill="rgb(125,69,42)" stroke="rgb(125,69,42)" stroke-width="1" opacity="0.9372549019607843" d="M 139.5 200 L 140 228.5 L 138.5 230 L 110.5 230 L 110.5 229 L 139 229 L 139.5 200 Z " /><path desc="l 12 p 5" fill="rgb(125,69,42)" stroke="rgb(125,69,42)" stroke-width="1" opacity="0.9372549019607843" d="M 240 200 L 251 200 L 251 219.5 L 251.5 222 L 254 209.5 L 253 203 L 257.5 202 L 269 203 L 269 207 L 267.5 207 L 265 208 L 266 225 L 268 225.5 L 261.5 228 L 261.5 226 L 255.5 227 L 243.5 226 L 241 225.5 L 242.5 223 L 244.5 223 L 246.5 224 L 248.5 224 Q 251.5 224.7 250 221 L 240 221 L 240 200 Z " /><path desc="l 12 p 6" fill="rgb(125,69,42)" stroke="rgb(125,69,42)" stroke-width="1" opacity="0.9372549019607843" d="M 135.5 202 L 137 203.5 L 137 224.5 L 136 227 L 114.5 227 L 112 225.5 L 114.5 223 L 122 222 L 121 210.5 L 122 210.5 Q 120.5 218.1 124 217 L 123.5 207 L 121 206.5 L 121.5 203 L 134.5 203 L 135.5 202 Z " /><path desc="l 12 p 7" fill="rgb(125,69,42)" stroke="rgb(125,69,42)" stroke-width="1" opacity="0.9372549019607843" d="M 161 210 L 198.5 210 L 199 220 L 161.5 220 L 161 210 Z " /><path desc="l 12 p 8" fill="rgb(125,69,42)" stroke="rgb(125,69,42)" stroke-width="1" opacity="0.9372549019607843" d="M 450 210 L 460 210.5 L 460 250 L 450 250 L 450 259 L 435.5 259 L 431 258.5 L 431 250 L 450 250 L 450 210 Z " /><path desc="l 12 p 9" fill="rgb(125,69,42)" stroke="rgb(125,69,42)" stroke-width="1" opacity="0.9372549019607843" d="M 150 221 L 160 221 L 160 250 L 150 250 L 150 221 Z " /><path desc="l 12 p 10" fill="rgb(125,69,42)" stroke="rgb(125,69,42)" stroke-width="1" opacity="0.9372549019607843" d="M 240.5 229 L 270 229.5 L 240.5 230 L 240.5 229 Z " /><path desc="l 12 p 11" fill="rgb(125,69,42)" stroke="rgb(125,69,42)" stroke-width="1" opacity="0.9372549019607843" d="M 210 230 L 220 230 L 220 250 L 210 250 L 210 230 Z " /><path desc="l 12 p 12" fill="rgb(125,69,42)" stroke="rgb(125,69,42)" stroke-width="1" opacity="0.9372549019607843" d="M 540 240 L 551 240.5 L 551 298.5 L 549.5 300 L 540 300 L 540.5 320 L 551 319 L 551 369.5 L 549.5 371 L 540 371.5 L 540 399.5 Q 538.5 402.5 532.5 401 L 530 400 L 530 370.5 L 540 369.5 L 540 320 L 521 320 L 521 311 L 530 311 L 530 300 L 540 299.5 L 540 240 Z " /><path desc="l 12 p 13" fill="rgb(125,69,42)" stroke="rgb(125,69,42)" stroke-width="1" opacity="0.9372549019607843" d="M 161 251 L 209.5 251 L 210 259 L 161.5 259 L 161 251 Z " /><path desc="l 12 p 14" fill="rgb(125,69,42)" stroke="rgb(125,69,42)" stroke-width="1" opacity="0.9372549019607843" d="M 490 311 L 510 311 L 510 319 L 490 319 L 490 311 Z " /><path desc="l 12 p 15" fill="rgb(125,69,42)" stroke="rgb(125,69,42)" stroke-width="1" opacity="0.9372549019607843" d="M 510 320 L 520 320 L 520 350 L 510 350 L 510 389.5 L 500 390 L 500 408.5 L 498.5 410 L 491 410 L 491 390.5 L 500 390 L 500 370 L 491 370 L 491 360 L 500 360 L 500 350 L 510 350 L 510 320 Z " /><path desc="l 12 p 16" fill="rgb(125,69,42)" stroke="rgb(125,69,42)" stroke-width="1" opacity="0.9372549019607843" d="M 470 371 L 490 371 L 490 379 L 470 379 L 470 371 Z " /><path desc="l 12 p 17" fill="rgb(125,69,42)" stroke="rgb(125,69,42)" stroke-width="1" opacity="0.9372549019607843" d="M 360 400 L 370 400 L 370 410 L 380 410 L 380 420 L 400 420 L 400 430 L 380 430 L 380 420 L 370 420 L 370 410 L 360 410 L 360 400 Z " /><path desc="l 12 p 18" fill="rgb(125,69,42)" stroke="rgb(125,69,42)" stroke-width="1" opacity="0.9372549019607843" d="M 521.5 400 L 527.5 401 L 530 401.5 L 530 420 L 521 420 L 521 426.5 L 520 429.5 L 520.5 431 L 510 431 L 510 440 L 500 440 L 500 450 L 491 450 L 491 458.5 L 490 461 L 480 461 L 480 470 L 470 470 L 470 480 L 461 480 L 461 488.5 L 460 491 L 440 490 L 440 480 L 460 480 L 460 470 L 470 470 L 470 460 L 480 460 L 480 450 L 490 450 L 490 440 L 500 440 L 500 430 L 510 430 L 510 420 L 520 420 L 520 401.5 L 521.5 400 Z " /><path desc="l 12 p 19" fill="rgb(125,69,42)" stroke="rgb(125,69,42)" stroke-width="1" opacity="0.9372549019607843" d="M 60 410 L 70 410 L 70 430 L 60 431 L 60 410 Z " /><path desc="l 12 p 20" fill="rgb(125,69,42)" stroke="rgb(125,69,42)" stroke-width="1" opacity="0.9372549019607843" d="M 480 410 L 490 410 L 490 420 L 480 420 L 480 430 L 470 430 L 470 420 L 480 420 L 480 410 Z " /><path desc="l 12 p 21" fill="rgb(125,69,42)" stroke="rgb(125,69,42)" stroke-width="1" opacity="0.9372549019607843" d="M 402.5 430 L 404.5 430 L 466.5 431 L 468.5 431 L 470 431.5 L 470 438.5 L 468.5 440 L 401 440 L 400 431 L 402.5 430 Z " /><path desc="l 12 p 22" fill="rgb(125,69,42)" stroke="rgb(125,69,42)" stroke-width="1" opacity="0.9372549019607843" d="M 70 431 L 80 431.5 L 80 433.5 L 79 450 L 90 450 L 90 459.5 L 88.5 461 L 80 461 L 79 450 L 71.5 450 L 70 448.5 L 70 431 Z " /><path desc="l 12 p 23" fill="rgb(125,69,42)" stroke="rgb(125,69,42)" stroke-width="1" opacity="0.9372549019607843" d="M 90 461 L 100 461 L 100.5 470 L 120 470 L 120 480 L 139.5 480 L 140 482.5 L 139 485.5 L 139.5 491 L 160 491 L 160.5 500 L 190 500 L 190.5 510 L 229.5 510 L 230.5 520 L 259.5 520 L 329.5 521 L 345.5 520 L 347.5 521 L 350 521.5 L 349.5 530 L 229 530 L 230 522.5 Q 228.2 518.3 226.5 521 L 190.5 521 L 190 510 L 160.5 510 L 160 500 L 139.5 500 L 139 495.5 L 140 492.5 L 137.5 490 L 121.5 491 L 120 489.5 L 120 480 L 100 480 L 100 470 L 90 470 L 90 461 Z " /><path desc="l 12 p 24" fill="rgb(125,69,42)" stroke="rgb(125,69,42)" stroke-width="1" opacity="0.9372549019607843" d="M 430.5 490 L 437.5 491 L 440 491.5 L 440 500 L 420 500 L 420 510 L 390 510 L 390 519.5 L 388.5 521 L 354.5 521 L 350 520 L 350 510 L 389.5 510 L 390 500 L 419.5 500 L 420 491 L 429.5 491 L 430.5 490 Z " /><path desc="l 14 p 0" fill="rgb(254,194,150)" stroke="rgb(254,194,150)" stroke-width="1" opacity="0.996078431372549" d="M 147.5 140 L 150 140.5 L 150 150 L 140.5 150 L 140 147.5 L 141.5 145 L 142.5 147 L 147 143.5 L 145 142.5 L 147.5 140 Z " /><path desc="l 14 p 1" fill="rgb(254,194,150)" stroke="rgb(254,194,150)" stroke-width="1" opacity="0.996078431372549" d="M 289.5 160 L 292 161.5 L 291.5 163 L 293.5 161 L 298.5 161 L 300 162.5 L 300 170 Q 305.6 168.1 304 173 L 298 170.5 L 294.5 163 L 293 163.5 L 298.5 174 L 305 175 L 306 181.5 L 308.5 184 L 314.5 185 L 314.5 184 L 308 180.5 L 307 176 Q 311.9 174.4 310 180 L 317.5 180 L 320.5 192 L 322.5 191 L 324.5 191 L 330 192.5 L 330 280.5 L 338.5 281 L 339 282.5 L 336.5 284 L 328 281.5 L 326 277.5 L 325.5 198 L 325 279.5 L 328.5 284 L 339.5 285 L 344 281.5 L 345 279.5 L 345 277.5 Q 343.8 273.8 347.5 275 L 354 271.5 L 355 265 L 364 261.5 L 365 255 L 425 254.5 L 364 254 L 360.5 262 L 353 265.5 L 349.5 273 L 344 274 L 341.5 282 L 340 281.5 L 341 270 L 350 270 L 350 263.5 L 351 261 L 360 260 L 360.5 251 L 422.5 251 L 425.5 252 L 430 251 L 429 257.5 L 430 260 L 433.5 261 L 456.5 260 L 459.5 261 L 462 259.5 L 461 254.5 L 465 251.5 L 462.5 251 L 461 251.5 L 461 240 L 470 239.5 L 470 210 L 499 210 L 499 225.5 L 497 227.5 L 500 229.5 L 498.5 229 L 492.5 229 L 490 227 L 488 231.5 L 490 231.5 L 490 270 L 480 270 L 480 280 L 471.5 280 L 468.5 276 L 459.5 276 L 457 278.5 L 461 279 L 461 277 L 466 277 L 466.5 279 L 469 279.5 L 464.5 280 L 462.5 279 L 456 280 L 456 311.5 L 457 314 L 465 316 Q 464 321.7 467.5 324 L 477.5 325 L 485.5 324 L 504.5 325 L 504.5 324 L 473.5 323 L 471 321.5 L 473.5 320 L 488.5 320 L 490.5 320 L 510 320 L 510 330 L 498 330.5 L 499 340 L 411.5 340 L 410 338.5 L 410 330 L 390 330 L 390 318.5 L 388 317.5 L 387.5 319 L 380 319 L 381 309 L 371.5 310 L 369 309 L 370 311.5 L 370 330 L 379 330 L 379 341 L 390 341 L 390 349 L 362.5 349 L 360 348 L 360.5 372 L 370 371 L 369 381 L 379 380 L 378 389.5 L 390 390 L 390 401.5 L 391.5 402 L 409 401 L 408 403.5 L 409 407 L 407 408.5 L 409 408.5 L 409 410.5 L 411.5 412 L 411.5 410 L 439 410 L 439 420 L 390.5 420 L 390 409.5 L 388.5 409 L 383 407.5 L 386.5 406 L 393 409.5 L 394.5 415 L 395 410.5 L 391.5 406 L 378 405 L 379.5 407 L 381.5 406 L 381 407.5 Q 381.5 410.5 374.5 409 L 372.5 409 Q 369.5 409.7 371 406 L 373 405.5 L 371 405 L 372 400.5 L 372.5 398 L 374 399.5 L 375 399.5 Q 377 389 371.5 386 L 365 385 Q 366.1 378.3 361.5 376 L 355 375 L 353 357 L 345.5 355 L 346.5 357 L 352 359.5 L 354 376 L 362 378.5 L 364 386 L 370.5 387 L 373 389.5 L 374 394.5 L 371 396.5 L 371 390 L 360 390 L 360 379 L 350 379 L 350 360 L 341 359.5 L 341 341.5 L 341.5 340 L 339.5 339 L 336.5 340 L 330 340 L 330 360 L 340 360 L 340 389.5 L 349 390.5 L 349 420 L 360 420 L 360 440 L 366.5 440 L 369 441 L 370 457.5 L 367.5 459 L 367 456.5 L 367 445.5 L 364.5 443 L 358 440.5 Q 354.3 434.6 356 424 L 348 422 L 346 416.5 L 345.5 395 L 345 419.5 L 346 423 L 355 425 L 355 438.5 L 357.5 443 L 365 445 L 367 464 L 373.5 465 L 375 462 L 370.5 463 L 370.5 462 L 390 461 L 390.5 470 L 420 470 L 420 480 L 430 480 L 430 488.5 L 428.5 490 L 413.5 490 L 409 490.5 L 409 499 L 385.5 499 L 383.5 498 L 381 499 Q 379.8 496 383.5 497 L 395 495.5 L 380.5 495 L 376 498.5 L 375 500.5 L 375 502.5 L 375.5 505 L 378.5 498 L 380 498.5 L 379 510 L 330.5 510 L 329.5 520 L 261 520 L 260 510 L 210.5 510 L 210 499 L 194.5 499 Q 195.5 495.8 189.5 497 L 189.5 498 L 193 498.5 L 181.5 499 L 179.5 499 L 170 498.5 L 170 496.5 L 172 493.5 L 171 491 Q 174 489.8 173 493.5 L 174 493.5 Q 175.3 487.3 171.5 486 L 145.5 485 L 145.5 486 L 169 487 L 168.5 490 L 166.5 489 L 160.5 490 L 158.5 490 L 142.5 490 L 140 489 L 140 480 L 121.5 480 L 120 478.5 L 120 469 L 101 469 L 101 461.5 L 101.5 460 L 98.5 459 L 91.5 460 L 90 458.5 L 90 450 L 81.5 450 L 80 448.5 L 81 432.5 L 80 430 L 76.5 429 L 74.5 430 L 71 429 L 71.5 408 Q 73.3 411.8 75 408.5 L 72 406.5 L 71 390 L 79 390 L 79 408.5 L 78.5 410 L 80 410.5 L 79.5 412 L 82 411.5 L 81.5 410 L 90 410 L 90 420 L 100 420 L 100 429 L 98 430.5 L 100 430.5 L 101.5 433 L 102 431 L 108.5 431 L 109 432.5 L 109 434.5 L 108 439.5 L 110 440.5 L 109.5 442 L 112 441.5 L 111.5 440 L 128.5 440 L 130 441.5 L 130 450 L 139 450 L 139 461 L 167.5 461 L 168 462.5 L 170 461.5 L 170.5 460 L 172 460.5 Q 168.4 457.4 170 450 L 161 450 L 161 440 L 179.5 440 L 180 450 L 199 450 L 199 461 L 227.5 461 L 228 462.5 L 230 461.5 L 230.5 460 L 232 460.5 Q 228.4 457.4 230 450 L 221 450 L 221 440 L 239.5 440 L 240 450 L 259 450 L 259.5 461 L 297.5 461 L 298 462.5 L 300 461.5 L 300 438.5 L 298.5 437 L 298 439 L 290 439 L 290 431.5 L 291 429 L 281 430 L 282 420.5 L 270 420 L 270 410 L 289 410 L 288 419.5 L 311.5 420 L 311 418.5 L 312 390.5 L 300 390 L 300 378.5 L 298.5 377 L 298 379 L 290 379 L 290 360 L 300 360 L 300 348.5 L 298 347.5 L 297.5 349 L 290 349 L 290 330 L 281 329.5 L 281 292.5 L 283 292.5 L 283.5 291 L 299 292.5 L 296.5 294 L 285 294.5 L 298.5 295 L 304 291.5 L 305 286 Q 312.3 286.6 315 281.5 L 314 279.5 L 316 276.5 L 316 244.5 L 312.5 236 L 305.5 235 L 305.5 236 Q 311.9 236.1 314 240.5 L 315 254.5 L 314 277.5 L 311.5 282 L 310 281.5 L 313 276.5 L 313 242.5 L 310.5 239 L 307.5 238 L 305.5 238 Q 300.3 239.8 302 234.5 L 301 231 L 303 232.5 L 304.5 235 L 305 231.5 L 300.5 229 L 291.5 230 L 291.5 229 L 300 228.5 L 300 190.5 L 299.5 188 L 298 188.5 L 298.5 190 Q 291.7 191.7 290 188.5 L 291 163.5 L 289.5 160 Z M 475 214 L 473 216 L 472 241 L 465 245 L 466 246 L 472 244 L 474 241 L 474 218 L 475 215 L 495 215 L 475 214 Z M 488 233 L 487 265 L 488 265 L 488 233 Z M 426 255 L 426 264 L 429 265 L 462 264 L 465 257 L 462 255 L 463 260 L 454 264 L 429 263 L 426 255 Z M 330 336 L 328 337 L 325 342 L 326 362 Q 328 365 335 365 L 336 367 L 336 391 L 337 393 L 343 395 L 345 395 L 340 392 L 337 388 L 337 366 L 331 363 L 326 356 L 327 341 L 332 337 Q 341 335 343 341 L 342 345 L 345 344 L 344 339 L 342 336 L 330 336 Z M 396 415 L 396 416 L 434 417 L 436 417 L 435 415 L 396 415 Z M 76 417 L 75 426 L 83 428 L 84 445 L 85 445 L 85 429 L 84 426 L 76 425 L 76 417 Z M 376 464 L 376 465 L 385 465 L 386 472 L 396 475 L 415 475 L 416 482 L 421 485 L 418 485 L 418 486 L 426 486 L 426 485 L 421 483 Q 416 481 416 475 L 415 473 L 390 472 L 386 466 L 386 464 L 376 464 Z M 127 475 L 127 476 L 142 477 L 143 480 L 142 483 Q 141 487 145 485 L 144 477 L 143 475 L 127 475 Z M 410 486 L 408 487 L 405 496 L 408 497 L 407 491 Q 410 486 417 487 L 410 486 Z M 190 495 L 190 496 L 207 496 L 212 498 L 214 505 L 215 505 L 214 499 L 209 495 L 190 495 Z M 216 505 L 216 506 L 239 507 L 242 506 L 260 507 L 263 515 L 265 516 L 326 516 L 327 511 L 331 507 L 336 506 L 374 506 L 374 505 L 329 506 L 325 511 L 325 515 L 265 515 L 264 509 L 259 505 L 216 505 Z " /><path desc="l 14 p 2" fill="rgb(254,194,150)" stroke="rgb(254,194,150)" stroke-width="1" opacity="0.996078431372549" d="M 76.5 201 L 79 202 L 79 219.5 L 73.5 220 L 72 218.5 L 72 203.5 L 76.5 201 Z " /><path desc="l 14 p 4" fill="rgb(254,194,150)" stroke="rgb(254,194,150)" stroke-width="1" opacity="0.996078431372549" d="M 162.5 221 L 163.5 224 L 164 221 L 188 221.5 L 185.5 225 L 188 225.5 L 183.5 228 L 179.5 225 L 165 225 L 165.5 230 L 166 226 L 177 226.5 L 173.5 235 L 166.5 238 L 165.5 235 L 165 240.5 L 168 250 L 163.5 249 L 161 250 L 162 223.5 L 162.5 221 Z " /><path desc="l 14 p 5" fill="rgb(254,194,150)" stroke="rgb(254,194,150)" stroke-width="1" opacity="0.996078431372549" d="M 63.5 222 L 70 222 L 70 242 L 66.5 244 L 65.5 241 L 65 245 L 70 248.5 L 71 253.5 L 70 253.5 Q 71.5 249.1 68.5 250 L 66.5 250 L 61 249.5 L 61 223 L 63.5 222 Z " /><path desc="l 14 p 7" fill="rgb(254,194,150)" stroke="rgb(254,194,150)" stroke-width="1" opacity="0.996078431372549" d="M 510 240 L 529 240 L 529 250 L 522 249.5 L 524 249 L 523.5 247 L 519 249 L 520 251.5 L 520 278.5 Q 518.3 281.8 511.5 280 L 511.5 278 L 509 279.5 L 510 310 L 480.5 310 L 480 308.5 L 480 306.5 L 480 300 L 491.5 300 L 491 298.5 L 491 281 L 497.5 281 L 500 282 L 500.5 280 L 502 280.5 L 500 277.5 L 500 261 L 510 260 L 510 240 Z M 514 244 Q 515 254 512 261 L 504 264 L 508 265 L 512 264 L 515 259 L 515 245 L 525 245 L 514 244 Z " /><path desc="l 14 p 9" fill="rgb(254,194,150)" stroke="rgb(254,194,150)" stroke-width="1" opacity="0.996078431372549" d="M 53.5 252 L 60 252.5 L 60 319 L 57 317.5 L 55.5 315 L 54 315 L 54 319 L 51.5 319 L 51 316.5 L 52 253.5 L 53.5 252 Z " /><path desc="l 14 p 11" fill="rgb(254,194,150)" stroke="rgb(254,194,150)" stroke-width="1" opacity="0.996078431372549" d="M 531.5 260 L 540 260.5 L 540 298.5 L 538.5 300 L 528 300 L 529 310 L 527 308.5 L 526 308.5 L 526 310 L 521 310 L 521 290 L 528.5 290 L 531 291 L 530 288.5 L 530 261.5 L 531.5 260 Z M 536 264 L 535 294 L 536 294 L 536 264 Z " /><path desc="l 14 p 13" fill="rgb(254,194,150)" stroke="rgb(254,194,150)" stroke-width="1" opacity="0.996078431372549" d="M 457 281 Q 460 279.8 459 283.5 L 460 307.5 L 457.5 309 L 457 306.5 L 457 281 Z " /><path desc="l 14 p 14" fill="rgb(254,194,150)" stroke="rgb(254,194,150)" stroke-width="1" opacity="0.996078431372549" d="M 82.5 289 L 120 289.5 L 82.5 290 L 82.5 289 Z " /><path desc="l 14 p 16" fill="rgb(254,194,150)" stroke="rgb(254,194,150)" stroke-width="1" opacity="0.996078431372549" d="M 440 360 L 489.5 360 L 490 366.5 L 489 368.5 L 489.5 370 L 487.5 369 L 472.5 370 L 470.5 369 L 468 370.5 L 469 374 L 466 372.5 L 468.5 367 L 468.5 369 L 470 367.5 L 471.5 366 L 485 365.5 L 468.5 365 L 465 367.5 L 466 370.5 L 465 375.5 L 469 375.5 L 468.5 379 L 450 379 L 450 370 L 441.5 370 L 440 368.5 L 440 360 Z " /><path desc="l 14 p 17" fill="rgb(254,194,150)" stroke="rgb(254,194,150)" stroke-width="1" opacity="0.996078431372549" d="M 60 371 L 63.5 372 L 70 371 L 69 379 L 66 377.5 L 65.5 375 L 63 376.5 L 62.5 379 L 60 379 L 60 371 Z " /><path desc="l 14 p 18" fill="rgb(254,194,150)" stroke="rgb(254,194,150)" stroke-width="1" opacity="0.996078431372549" d="M 495 371 L 497.5 372 L 499 371.5 L 499 390 L 491 390 L 492 379.5 L 491 376 L 493 374.5 L 494.5 375 L 496 374.5 L 495 371 Z " /><path desc="l 14 p 19" fill="rgb(254,194,150)" stroke="rgb(254,194,150)" stroke-width="1" opacity="0.996078431372549" d="M 420 380 L 439 380 L 439 390 L 420 390 L 420 380 Z " /></svg>